<?xml version="1.0" encoding="UTF-8" standalone="no"?>
<!-- Created with Inkscape (http://www.inkscape.org/) -->

<svg
   xmlns:dc="http://purl.org/dc/elements/1.1/"
   xmlns:cc="http://creativecommons.org/ns#"
   xmlns:rdf="http://www.w3.org/1999/02/22-rdf-syntax-ns#"
   xmlns:svg="http://www.w3.org/2000/svg"
   xmlns="http://www.w3.org/2000/svg"
   xmlns:sodipodi="http://sodipodi.sourceforge.net/DTD/sodipodi-0.dtd"
   xmlns:inkscape="http://www.inkscape.org/namespaces/inkscape"
   width="210mm"
   height="297mm"
   viewBox="0 0 210 297"
   version="1.1"
   id="svg8870"
   inkscape:version="0.92.4 (5da689c313, 2019-01-14)"
   sodipodi:docname="arrow_back.svg">
  <defs
     id="defs8864" />
  <sodipodi:namedview
     id="base"
     pagecolor="#ffffff"
     bordercolor="#666666"
     borderopacity="1.0"
     inkscape:pageopacity="0.0"
     inkscape:pageshadow="2"
     inkscape:zoom="0.12374369"
     inkscape:cx="2682.052"
     inkscape:cy="-31.30365"
     inkscape:document-units="mm"
     inkscape:current-layer="layer1"
     showgrid="false"
     inkscape:window-width="1920"
     inkscape:window-height="1051"
     inkscape:window-x="-9"
     inkscape:window-y="1341"
     inkscape:window-maximized="1" />
  <metadata
     id="metadata8867">
    <rdf:RDF>
      <cc:Work
         rdf:about="">
        <dc:format>image/svg+xml</dc:format>
        <dc:type
           rdf:resource="http://purl.org/dc/dcmitype/StillImage" />
        <dc:title></dc:title>
      </cc:Work>
    </rdf:RDF>
  </metadata>
  <g
     inkscape:label="Layer 1"
     inkscape:groupmode="layer"
     id="layer1">
    <rect
       style="fill:#ffffff;fill-opacity:1;stroke-width:0.26458332"
       x="1211.1371"
       y="16.274641"
       width="1190.625"
       height="952.5"
       id="rect9415" />
    <path
       style="fill:#231f20;fill-opacity:1;fill-rule:evenodd;stroke-width:0.26458332"
       inkscape:connector-curvature="0"
       d="m 1834.8654,580.71253 c -2.8546,3.78375 -6.1299,7.20267 -7.8631,11.63651 -1.1906,3.04271 -1.9709,3.69072 -3.8416,2.85252 -2.6086,-1.17202 -3.8685,-3.94187 -2.5694,-6.05647 3.1647,-5.14387 5.7444,-10.56473 8.1339,-16.0941 1.5317,-3.54605 3.2008,-7.03318 4.9103,-10.49652 1.0924,-2.21486 3.7228,-3.02411 5.7392,-1.70429 3.1088,2.03295 5.0767,4.84518 5.6327,8.64444 0.2801,1.8996 1.5927,3.4127 2.7171,4.92683 2.5219,3.40236 5.3951,6.5691 7.0249,10.56161 0.6274,1.53996 1.3994,3.01689 0.7752,4.7997 -0.3307,0.94983 0.4733,1.70948 0.8806,2.48669 1.5926,3.05409 1.6061,4.24677 -0.087,5.17075 -1.8573,1.01801 -4.8287,-0.3049 -6.0348,-2.55077 -1.1669,-2.1673 -2.6862,-4.16512 -3.6566,-6.4058 -0.7514,-1.73323 -1.2733,-3.58015 -2.064,-5.32061 -0.6222,-1.37046 -1.3415,-2.62723 -2.5848,-4.07725 -0.4424,3.53983 -0.1613,6.68898 0.3307,9.77407 0.8041,5.08702 2.0474,10.10894 2.8174,15.20011 0.7493,4.98469 2.2014,9.93737 1.1906,15.07296 -0.1798,0.91779 -0.4548,1.76218 -1.109,2.45052 -1.9782,2.08772 -3.9574,4.18476 -5.9531,6.25801 -0.431,0.45061 -1.0687,0.5271 -1.6216,0.76067 -5.5108,2.32336 -10.8107,5.07154 -15.8988,8.21656 -1.1534,0.71107 -2.1539,1.6588 -3.2835,2.41432 -3.2122,2.14768 -3.9688,5.38779 -2.0877,8.79224 0.7937,1.43658 1.5802,2.88044 2.3791,4.29842 1.1297,2.01022 2.7224,2.14355 4.5083,2.38747 8.2445,1.13376 16.521,0.52504 24.7912,0.39481 7.1283,-0.10957 14.2534,-0.67284 21.3889,-0.27699 10.1441,0.5612 20.2913,1.03663 30.4219,1.77871 2.8391,0.20566 5.6938,0.99838 8.4109,1.91201 2.7048,0.9126 7.5727,6.45853 7.2895,10.54407 -0.071,1.01492 -0.2243,1.98438 -0.9364,2.74196 -6.3924,6.80474 -14.026,11.07942 -23.4311,12.41888 -8.7344,1.24436 -17.5555,1.31979 -26.2816,2.58278 -8.5463,1.23298 -17.0522,2.56109 -25.4745,4.50927 -3.055,0.70591 -6.2538,1.05939 -9.3895,1.56374 -1.4397,0.23048 -2.7864,0.67283 -4.1703,1.04386 -4.654,1.23714 -9.3741,2.21898 -14.0116,3.50057 -4.0039,1.10794 -8.0812,1.81279 -12.1367,2.6479 -2.4712,0.5085 -3.1595,2.53111 -3.7279,4.60644 -0.246,0.89916 0.5374,0.74205 0.9704,0.8599 1.5751,0.42579 3.2174,0.17465 4.7284,-0.0569 4.6437,-0.71623 9.1602,-0.38137 13.6633,0.82166 3.3207,0.88469 6.6435,-0.092 9.9746,-0.0455 10.8696,0.14573 21.7299,0.69041 32.3908,2.8298 9.2728,1.8614 18.5652,3.62045 27.9135,4.94131 5.9262,0.83716 11.7388,2.3182 17.756,2.69957 3.3941,0.21497 6.3397,1.95752 9.1302,4.32014 1.9844,1.67537 3.3972,3.57396 4.9351,5.50873 1.7115,2.15387 2.4495,4.71289 2.7699,7.3184 0.5085,4.17028 -2.0898,6.82234 -5.2307,8.86976 -6.0906,3.97597 -12.7321,6.72515 -19.6484,9.04026 -7.7391,2.59209 -15.5784,2.67787 -23.5263,2.32648 -8.1648,-0.35761 -16.3142,-0.34314 -24.4894,0.0951 -10.7559,0.57671 -21.3579,2.2107 -31.8647,4.29948 -8.5349,1.69704 -16.2058,5.72368 -21.793,12.56667 -4.13,5.05913 -3.7807,4.29223 2.312,7.14375 2.2675,1.06143 4.8452,1.24746 7.3453,1.39629 4.469,0.26665 8.9483,0.59531 13.4193,0.56121 6.7386,-0.0537 13.4255,-1.08625 20.1848,-1.1679 8.7499,-0.10335 17.4791,0.0393 26.1628,1.04386 4.778,0.55192 9.5725,0.12404 14.3216,0.66974 6.9163,0.79582 14.0146,0.69453 20.6106,3.24527 6.8058,2.63137 12.8168,6.54328 17.5472,12.23286 1.7333,2.08875 3.3818,4.21989 4.5011,6.7293 2.8629,6.40684 0.3018,10.21541 -3.9926,14.7619 -2.1435,2.27169 -5.0983,3.26697 -7.832,4.29017 -5.487,2.05774 -11.0092,4.00285 -16.4145,6.28695 -4.3688,1.84898 -8.9142,3.61632 -13.4566,4.53927 -7.1013,1.44073 -13.8534,3.92326 -20.7512,5.89729 -6.3076,1.80351 -12.6762,3.64528 -19.0582,4.61574 -9.8878,1.50069 -19.3384,4.72117 -29.1466,6.32315 -7.7122,1.2578 -15.3427,3.05511 -23.1665,3.63802 -3.1864,0.2377 -6.133,1.70428 -9.3535,1.92854 -0.7172,0.0496 -1.4024,0.83098 -2.0608,1.32811 -7.9665,6.02236 -13.9651,1.88722 -16.5737,-5.1997 -1.2092,-3.28144 0.8361,-6.48126 4.2489,-7.26673 1.4448,-0.33279 2.8659,-0.78031 4.3129,-1.10588 3.0613,-0.68625 5.2948,0.76896 6.7686,2.71095 1.7032,2.25618 3.6318,2.49391 5.8973,2.0991 9.3927,-1.64227 18.9497,-2.30373 28.2122,-4.68601 5.2834,-1.35808 10.8397,-1.64127 15.9411,-3.60704 10.3167,-3.97185 21.2039,-6.39752 31.0752,-11.58171 2.3946,-1.2578 5.0033,-2.45256 7.832,-1.98025 2.1508,0.35761 3.2143,-1.43245 4.868,-2.04533 8.6733,-3.19982 17.4521,-6.17535 25.5167,-10.83967 2.6665,-1.54305 4.8018,-3.71345 7.0559,-5.71436 2.7761,-2.45981 1.8583,-6.60736 -1.4789,-8.24344 -2.0578,-1.00975 -4.1249,-1.47484 -6.3676,-0.86712 -1.6537,0.44855 -3.1171,-0.47955 -4.6891,-0.65114 -5.8446,-0.63561 -11.6789,-1.39009 -17.5338,-1.96162 -3.2412,-0.31522 -5.9924,-2.08878 -9.1468,-2.69544 -5.0746,-0.97565 -10.0407,-2.01848 -15.3272,-1.88103 -7.3081,0.18809 -14.642,-0.71003 -21.9656,-0.74208 -6.043,-0.0269 -12.0571,-0.55604 -18.1343,-0.24701 -7.6729,0.38756 -15.3386,-0.60566 -22.9795,-1.68775 -4.503,-0.6408 -8.9617,-1.27847 -13.0648,-3.267 -4.8999,-2.37193 -8.4749,-6.0606 -9.9219,-11.45045 -0.648,-2.41019 -0.093,-3.59151 2.3151,-4.04627 2.6852,-0.50229 4.6488,-2.12492 6.7914,-3.47163 6.2177,-3.91498 12.9676,-6.75719 19.7145,-9.525 6.0007,-2.46186 12.023,-4.9082 18.0733,-7.23881 9.2108,-3.55534 18.6294,-6.44303 28.7342,-6.48748 6.596,-0.0279 13.1868,-0.78134 19.7828,-1.18441 3.1832,-0.19431 6.3293,0.46406 9.5167,0.53949 5.1676,0.12404 10.1048,-0.7896 15.0182,-2.0257 2.2541,-0.56534 4.5062,-0.72864 6.7727,-0.67697 3.9274,0.0889 7.213,-1.11725 9.9942,-3.96462 3.1988,-3.27628 2.188,-3.89226 -0.2573,-6.49158 -2.0609,-2.18903 -4.7201,-3.483 -7.7918,-3.79306 -2.2458,-0.22426 -4.1486,-1.91617 -6.5929,-1.51826 -0.4206,0.0672 -0.7782,-0.86712 -1.4769,-1.23817 -4.1165,-2.18176 -8.5989,-1.98851 -13.0038,-2.47529 -6.1361,-0.67283 -12.1264,-2.27687 -18.3038,-2.76055 -6.6466,-0.51885 -13.2747,-0.74724 -19.9502,-0.35968 -12.1543,0.70488 -24.3252,1.18028 -36.5074,1.2051 -5.7939,0.0114 -11.1362,-1.35083 -15.4564,-5.37641 -2.8422,-2.64274 -4.5961,-6.03478 -5.2844,-9.8702 -0.3566,-1.98954 0.5746,-2.96106 2.6644,-3.69798 9.0227,-3.175 18.5529,-4.60539 27.4485,-8.16279 0.4175,-0.16743 0.8806,-0.29353 1.3249,-0.30284 7.2689,-0.13333 14.0788,-2.67891 21.0851,-4.15065 6.1464,-1.29398 12.3641,-2.23346 18.4815,-3.61837 11.2314,-2.54145 22.9258,-2.7895 33.8739,-6.58772 3.9027,-1.3529 7.7339,-3.03859 11.526,-4.71599 1.8727,-0.82992 3.0581,-2.63549 3.886,-4.57957 0.7038,-1.65364 -0.029,-2.62517 -1.542,-2.80604 -5.9056,-0.70794 -11.7791,-1.55752 -17.7674,-1.71357 -3.7807,-0.0992 -7.5561,-0.0476 -11.3233,-0.0331 -7.8662,0.0331 -15.7479,0.0692 -23.5831,0.65111 -2.6531,0.19741 -5.3816,0.66352 -7.9633,0.36174 -4.0401,-0.47234 -8.0884,-0.21394 -12.1264,-0.71417 -4.7201,-0.58393 -9.4878,-0.98186 -14.1439,-1.86552 -4.3346,-0.82579 -8.8635,-1.62367 -12.0519,-5.28547 -3.8737,-4.44934 -4.6912,-7.69462 -0.585,-12.09951 4.3656,-4.68085 9.5539,-8.1194 15.0285,-11.26754 4.7915,-2.75434 9.8268,-5.00124 14.7764,-7.43106 5.0591,-2.47944 10.3611,-4.5093 14.6792,-8.44291 3.175,-2.89179 4.1413,-6.29211 3.7042,-10.20815 -0.5447,-4.89995 -1.1907,-9.81025 -2.2087,-14.62546 -0.7514,-3.56671 -1.0004,-7.17372 -1.7973,-10.85929"
       id="path9417" />
    <path
       style="fill:#231f20;fill-opacity:1;fill-rule:evenodd;stroke-width:0.26458332"
       inkscape:connector-curvature="0"
       d="m 2013.3827,232.38134 c -27.8815,1.46244 -55.8354,0.60564 -83.7665,2.07636 0.1767,0.98495 0.7245,1.4025 1.2402,1.85518 5.517,4.82038 10.1203,10.45621 14.3589,16.3804 2.7491,3.83852 5.8952,7.27087 9.3296,10.47171 0.8568,0.79375 1.8231,1.0666 2.9156,0.43718 4.8441,-2.79983 10.1895,-4.49068 15.0998,-7.28431 6.9536,-3.95325 14.2265,-7.4321 21.4127,-11.01225 0.5581,-0.27802 1.479,-0.26975 1.4893,-1.17925 0.022,-1.65158 1.2733,-1.85002 2.4288,-2.20969 1.0852,-0.33383 2.3048,-0.47335 3.2225,-1.06867 4.099,-2.66443 8.5783,-4.75733 12.2691,-8.46666 m 8.1338,-18.78542 c -3.3868,-1.58027 -5.702,-4.19406 -8.6764,-5.78672 -2.4526,-1.31259 -5.0426,-2.36059 -7.4818,-3.75171 -6.7024,-3.81579 -13.534,-7.3949 -20.2778,-11.13111 -4.7418,-2.62723 -9.2346,-5.68854 -14.055,-8.19898 -1.9316,-1.00563 -3.9708,-1.75493 -5.921,-2.69648 -2.5849,-1.24643 -4.7997,-3.07681 -7.4611,-4.18062 -2.0081,-0.83613 -3.4323,-0.74828 -4.6705,1.15135 -1.0738,1.63711 -2.3068,3.175 -3.4313,4.7811 -6.0379,8.61137 -13.3697,16.21607 -19.3384,24.88324 -1.3146,1.91099 -1.2123,2.20658 1.1772,2.58796 6.8451,1.09243 13.7139,1.38079 20.651,1.13274 7.0507,-0.25425 14.0384,1.20613 21.116,1.09761 5.8973,-0.0899 11.806,0.13022 17.7012,0.39997 10.1038,0.46303 20.2107,2.63447 30.6679,-0.28835 m -83.4212,-57.30606 c 0.1509,-0.81546 0.1064,-1.74667 0.495,-2.43189 0.7566,-1.34152 1.9741,-1.83348 3.4107,-0.92915 5.6275,3.55431 12.2152,5.14181 17.8542,8.61756 8.077,4.98265 16.7059,8.90902 25.0186,13.43278 6.1092,3.32382 12.6153,5.90041 18.8226,9.05164 9.3772,4.75733 18.7648,9.48779 27.9931,14.54485 5.8839,3.22254 11.9404,6.19394 18.2274,8.6589 2.7192,1.0666 5.4394,2.27273 7.4134,4.63641 0.5974,0.71417 1.5421,1.12448 2.4371,1.11105 2.5394,-0.0403 4.8493,1.18235 7.3732,1.19062 2.0113,0.0103 4.1093,0.87333 4.7046,2.56625 0.955,2.70164 0.8176,5.71542 -1.0428,8.19692 -0.8754,1.17202 -2.3389,1.4366 -3.7414,1.03663 -1.6774,-0.47853 -3.2297,0.12505 -4.839,0.22221 -6.0719,0.3731 -10.8737,3.87676 -16.092,6.23424 -6.1753,2.79363 -12.0675,6.17533 -17.8563,9.78958 -5.3133,3.31763 -10.449,6.92671 -15.9039,10.0459 -7.6254,4.35736 -15.2931,8.63823 -23.056,12.74238 -4.1537,2.19315 -8.5514,3.91811 -12.7558,6.01927 -4.5981,2.2996 -9.0775,4.84208 -13.6632,7.17579 -2.9632,1.50792 -6.0348,2.79156 -9.0196,4.254 -2.1002,1.0325 -4.1352,2.20142 -6.1991,3.31556 -0.9157,0.49506 -2.0929,0.53434 -2.3709,-0.41031 -0.5023,-1.70119 -1.8759,-2.07636 -3.0955,-2.80189 -0.3648,-0.21911 -0.8681,-0.65836 -0.8568,-0.97876 0.1344,-3.96668 -3.083,-6.24664 -4.6198,-9.36377 -2.156,-4.37389 -5.6173,-7.87135 -8.0305,-12.09642 -3.2174,-5.62239 -6.4503,-11.27993 -10.2733,-16.49201 -1.7302,-2.36265 -2.8185,-5.15421 -4.9796,-7.24401 -1.0717,-1.04489 -1.7652,-1.12447 -2.8629,-0.24598 -1.1906,0.94982 -2.2727,1.16376 -3.5191,-0.24908 -1.1638,-1.31258 -3.0851,-1.53479 -4.6457,-2.2934 -6.7841,-3.29695 -14.1707,-4.23643 -21.4344,-5.68337 -2.3781,-0.47646 -4.7387,-0.91778 -7.1592,-1.08211 -1.7198,-0.11368 -2.588,-1.08003 -2.4236,-2.88147 0.071,-0.82786 0.1508,-1.68259 0.027,-2.49287 -0.3339,-2.20659 0.526,-3.53157 2.7326,-3.82303 0.6325,-0.0848 0.9126,-0.41754 1.2619,-0.80925 1.1038,-1.24643 2.2573,-1.53479 3.9926,-0.95808 2.4101,0.79892 4.9371,1.14825 7.2626,-0.76688 1.2206,-0.99735 2.9372,-0.7121 4.4266,-0.53227 1.7384,0.21188 3.2814,-0.17466 4.8369,-0.86506 2.4866,-1.11104 4.9795,-2.22519 7.5272,-3.17707 1.1089,-0.41858 2.313,-0.8847 3.5429,-0.62735 3.2835,0.67696 5.2018,-1.15135 6.5216,-3.7021 2.8556,-5.51594 5.9004,-10.93783 8.8956,-16.36902 4.1113,-7.45381 7.5302,-15.23525 11.4804,-22.75727 1.7911,-3.41788 3.3765,-6.96392 4.1827,-10.77867"
       id="path9419" />
    <path
       style="fill:#231f20;fill-opacity:1;fill-rule:evenodd;stroke-width:0.26458332"
       inkscape:connector-curvature="0"
       d="m 1823.819,232.32553 c -1.0841,0.25114 -2.3936,0.28008 -2.6747,1.84174 -0.076,0.43099 0.1932,0.91261 0.556,0.72451 1.0924,-0.55811 2.2303,-1.14515 3.0871,-1.99264 0.3732,-0.37001 -0.4702,-0.50747 -0.9684,-0.57361 m -80.5894,9.07541 c 0.2863,-1.80764 0.8496,-3.0241 0.5478,-4.55063 -0.2615,-1.33118 -0.9705,-1.29914 -1.8304,-1.13067 -1.1834,0.23357 -0.4496,1.07693 -0.2966,1.57199 0.3886,1.24127 0.9229,2.43706 1.5792,4.10931 m -11.8504,47.99294 c -0.7617,2.04225 -0.4413,3.65042 -0.741,5.16971 -0.1086,0.54984 -0.5581,1.19579 0.1963,1.57717 0.5209,0.26148 1.0025,-0.032 1.3994,-0.43719 0.4527,-0.45475 1.3095,-0.78031 0.8362,-1.6061 -0.7411,-1.28778 -0.8992,-2.78019 -1.6909,-4.70359 m 106.8596,-67.79225 c -2.8463,-0.86196 -5.8601,-0.96841 -8.5855,-2.3151 -0.4072,-0.20361 -1.1059,-0.44442 -1.1906,0.42581 -0.1106,1.16169 1.9606,3.07475 3.1429,2.90318 2.2149,-0.31729 4.4246,-0.67282 6.6332,-1.01389 m -13.47,1.37563 c -0.8991,-1.32498 -1.7859,-2.61896 -2.3967,-4.09484 -0.3628,-0.89194 -0.8413,-1.78387 -1.9389,-2.07739 -0.3473,-0.093 -0.6935,-0.47646 -1.0346,-0.22221 -0.4557,0.33589 -0.2356,0.83096 -0.045,1.23507 0.6408,1.36322 1.3364,2.70164 1.9658,4.0721 0.6883,1.49551 1.664,2.12183 3.4499,1.08727 m -111.6934,13.66635 c 4.871,1.22473 9.6366,0.60358 14.335,-0.96635 -4.778,0.23048 -9.6283,-0.81752 -14.335,0.96635 m 96.975,7.94267 c 1.2485,-0.96325 2.2965,-1.70636 3.2628,-2.54042 0.4971,-0.42788 1.201,-0.97875 0.9788,-1.67741 -0.585,-1.82315 -0.3339,-3.59565 0,-5.39502 0.1581,-0.86507 -0.1116,-1.56063 -1.1038,-1.61127 -0.9809,-0.0475 -1.7167,0.44751 -1.5586,1.48518 0.3256,2.13733 -0.6263,4.00802 -1.0635,5.98413 -0.2563,1.16168 -0.8279,2.26756 -0.5157,3.75481 m -9.8795,-19.51302 c -0.5106,-1.34669 -1.8015,-1.47692 -2.3358,-2.46084 -2.1704,-3.99768 -4.2447,-8.04085 -5.7816,-12.32896 -0.3576,-0.99012 -0.7782,-1.82624 -1.8283,-2.14354 -0.5447,-0.1695 -1.1513,-0.78031 -1.6743,-0.23564 -0.5323,0.55087 0.095,1.09554 0.3307,1.62161 2.2697,5.04568 5.7754,9.43301 7.829,14.59755 0.6501,1.62988 1.9761,1.2144 3.4603,0.94982 m 0.7193,27.0402 c 1.604,-1.02629 3.39,-1.48104 2.9797,-3.57187 -0.3204,-1.63711 -0.037,-3.09852 0.4526,-4.65915 0.8145,-2.59829 1.4025,-5.27099 2.0237,-7.92716 0.1695,-0.71417 0.741,-1.71979 -0.7462,-1.84175 -1.1079,-0.092 -1.8965,0.0693 -1.9978,1.46348 -0.1241,1.72289 -0.3835,3.42098 -0.77,5.13043 -0.8248,3.62252 -1.8438,7.23677 -1.942,11.40602 m 5.4777,-27.0402 c 0.6739,-0.0341 0.9839,-0.0134 1.2774,-0.0765 0.5292,-0.11369 1.3653,0.31419 1.5028,-0.54571 0.098,-0.60254 -0.5922,-0.82785 -1.0583,-1.03663 -1.0925,-0.48162 -1.7539,-1.36839 -2.4547,-2.27789 -1.6887,-2.19935 -2.6406,-4.75217 -3.5781,-7.29981 -0.3544,-0.95809 -0.8123,-1.83658 -1.5265,-2.47427 -0.4837,-0.43408 -1.325,-1.0449 -1.9627,-0.57361 -0.5932,0.44132 -0.1064,1.19269 0.1272,1.84898 1.3756,3.86333 3.6246,7.26261 5.5056,10.85826 0.6511,1.24126 1.2723,1.71462 2.1673,1.57716 m 11.3895,-1.0294 c -2.0981,-1.85725 -3.3621,-4.0876 -3.9977,-6.42648 -0.894,-3.28352 -3.175,-3.89227 -6.1009,-4.30258 0.8568,3.75791 3.0561,6.5226 4.9051,9.53017 1.4842,2.41122 3.0272,1.81591 5.1935,1.19889 m -26.2465,34.3824 c 3.6546,-1.5999 4.0432,-2.25929 3.4582,-5.80946 -0.1529,-0.94258 0.1747,-1.78387 0.4444,-2.64377 1.4532,-4.56096 2.4371,-9.23871 3.5161,-13.89062 0.3493,-1.50276 -0.2088,-1.66915 -1.4521,-1.65882 -1.3415,0.0104 -1.971,0.339 -1.5555,1.84692 0.1902,0.68006 0.1933,1.44177 -0.2036,2.20141 -1.1854,2.23243 -1.6908,4.69326 -2.128,7.16236 -0.7514,4.22506 -1.7591,8.41395 -2.0795,12.79198 m -59.5044,26.787 c 0.1985,0.0393 0.3969,0.0796 0.5954,0.11885 3.6277,-12.27625 6.1567,-24.82846 9.6707,-37.58943 -1.911,0.70693 -3.3156,1.0666 -3.5533,2.84117 -0.6304,4.73149 -2.4929,9.20047 -2.9135,13.98674 -0.3276,3.77548 -1.3126,7.4445 -2.0898,11.1466 -0.6646,3.14607 -1.1462,6.3283 -1.7095,9.49607 m 46.6039,-81.22192 c 0.124,0.56327 0.1798,0.91571 0.2801,1.25884 1.3364,4.60127 3.6432,8.80566 5.4188,13.2271 0.8754,2.17248 1.9741,4.254 2.9022,6.40581 0.7513,1.74356 2.2861,1.13998 3.331,0.8723 1.0583,-0.27182 0.2625,-1.43661 0.048,-2.0929 -0.494,-1.49448 -1.1007,-2.96829 -1.8335,-4.36252 -2.3543,-4.48448 -5.1356,-8.74159 -7.2099,-13.38523 -0.4919,-1.11104 -1.3146,-1.82831 -2.9362,-1.9234 m -66.9324,14.10766 c 1.4314,-0.0796 2.4319,-0.26975 3.3951,-0.16122 4.0008,0.45785 7.7711,-0.92088 11.6551,-1.35806 1.1317,-0.12713 1.2992,-0.86196 0.9075,-1.81178 -0.3783,-0.92604 -1.0212,-2.78639 -1.6144,-2.23035 -1.9472,1.82831 -4.2385,0.60048 -6.2622,1.30431 -5.0084,1.74563 -10.4169,1.14515 -15.5318,2.38125 -0.6532,0.15813 -1.8066,-0.29662 -1.5472,0.94671 0.1984,0.95498 1.1668,2.07223 2.098,1.61954 2.4237,-1.19062 4.9341,-0.21394 6.8999,-0.6904 m 69.9668,8.04293 c -1.4604,-1.78801 -1.8573,-3.73311 -2.4474,-5.5883 -1.7891,-5.6534 -4.6406,-10.87892 -6.625,-16.4486 -0.958,-2.68821 -2.2179,-3.5326 -5.2306,-3.22771 0.6614,1.55856 1.2195,3.13262 1.9812,4.59506 2.9477,5.63894 5.9346,11.23963 7.7949,17.39119 0.5106,1.68052 1.3281,4.09381 4.5269,3.27836 m -57.2586,1.18855 c 1.6826,0 3.1244,-0.0186 4.5672,0.005 4.1744,0.0631 4.1961,0.061 2.312,-3.75687 -0.2987,-0.60875 -0.1984,-1.60404 -1.6216,-1.30535 -4.0669,0.85783 -8.1649,1.64848 -12.2928,2.07223 -1.9337,0.19843 -3.9026,0.3576 -5.8549,0.50539 -1.3581,0.10542 -1.4552,1.13791 -1.4128,2.17248 0.058,1.37252 1.0448,0.94154 1.8334,0.90227 4.2354,-0.20671 8.4564,-0.75448 12.4695,-0.59531 m 64.2783,7.27604 c -2.9507,-0.154 -3.0479,-0.061 -2.3389,2.41535 0.3121,1.07694 0.082,2.11874 -0.066,3.1595 -0.9953,6.98459 -2.0639,13.95057 -4.0483,20.75119 -0.339,1.15548 -1.2568,2.90215 -0.3204,3.5419 0.8992,0.61185 2.2014,-0.91984 3.3548,-1.449 0.6408,-0.29663 1.5958,-0.6594 1.1772,-1.64641 -1.1668,-2.74919 -0.1581,-5.31544 0.4155,-7.97161 1.1669,-5.40329 2.0795,-10.86652 3.2938,-16.26154 0.4104,-1.81178 0.7256,-3.02101 -1.4675,-2.53938 m -32.8456,-38.56099 c -0.1488,0.98185 0.029,1.70119 0.3173,2.41329 3.6536,9.05888 7.2017,18.16633 11.557,26.92342 0.8226,1.65158 2.1693,1.34772 3.516,1.12448 0.5984,-0.10025 0.6615,-0.55294 0.432,-1.03973 -1.3704,-2.89388 -1.6381,-6.11436 -2.7202,-9.11159 -1.9689,-5.456 -5.456,-10.17302 -7.3691,-15.62385 -0.9705,-2.75952 -2.8174,-4.18889 -5.733,-4.68602 m 13.1362,39.02088 c -0.8837,0.15089 -2.3812,-0.3204 -2.3151,1.2857 0.2356,5.72059 -1.3725,11.21069 -1.9017,16.83618 -0.556,5.92626 -2.1756,11.68301 -3.1037,17.55759 -0.185,1.17926 0.1158,2.39365 -0.4341,3.55534 -0.5054,1.0666 -1.3601,2.52181 -0.3679,3.33933 0.9364,0.77515 1.9554,-0.64285 2.9321,-1.12138 1.262,-0.62218 1.9472,-1.20199 1.2403,-2.87941 -1.0294,-2.45463 -1.4263,-5.05292 0.4712,-7.44244 0.3018,-0.37827 0.3091,-1.00045 0.4259,-1.51618 1.0211,-4.5775 2.0877,-9.14363 3.0344,-13.73663 0.8682,-4.22817 1.6537,-8.46977 2.3761,-12.72378 0.3896,-2.27272 -0.3514,-3.17293 -2.3575,-3.15432 m 1.2599,37.09437 c 1.5213,-0.98391 2.6138,-1.7725 3.7837,-2.43085 1.817,-1.02423 3.0314,-2.15905 1.6795,-4.42144 -0.3121,-0.5271 -0.3255,-1.32808 0.01,-1.98954 1.2464,-2.466 1.6381,-5.19452 2.3151,-7.82382 1.5906,-6.1619 3.2732,-12.31346 3.4768,-18.73787 0.022,-0.66973 0.2997,-1.50792 -0.4703,-1.82831 -1.3363,-0.55294 -2.6861,-0.12713 -3.9718,0.34623 -1.1348,0.42064 -0.5664,1.418 -0.5902,2.15697 -0.044,1.36529 -0.2005,2.69854 -0.4578,4.04523 -1.4469,7.58817 -2.9528,15.17117 -4.1507,22.80171 -0.3968,2.51871 -1.5875,4.87102 -1.6247,7.88169 m -32.1417,16.37006 c 0.2564,0.69867 -0.2697,1.43454 0.3039,1.85209 0.6697,0.48989 1.0294,-0.39171 1.5586,-0.56844 2.098,-0.6966 2.776,-1.93684 1.7776,-4.0411 -0.3545,-0.74311 -0.1798,-1.65571 0.1912,-2.41019 1.3912,-2.82567 1.8624,-5.90765 2.6407,-8.91315 2.5663,-9.90637 5.5563,-19.70629 7.3422,-29.80284 0.4392,-2.4691 0.9043,-4.93716 1.2402,-7.41866 0.2698,-2.01125 -1.3487,-1.53996 -2.4546,-1.68362 -0.7938,-0.10025 -1.8025,-0.11576 -1.4128,1.01906 0.896,2.61173 -0.2357,4.932 -0.7576,7.34218 -2.9838,13.86169 -6.2963,27.6438 -9.7782,41.3887 -0.2811,1.09864 -0.4507,2.22518 -0.6512,3.23597 m 23.3206,-49.76027 c 0.021,-0.45475 0.068,-0.90744 0.058,-1.36219 -0.024,-1.11931 -0.8124,-1.67225 -1.7302,-1.7601 -1.0108,-0.0951 -1.019,0.78652 -1.1565,1.58543 -0.3307,1.92857 -0.8227,3.82509 -1.1927,5.75469 -0.9498,4.98988 -1.4293,10.05624 -2.6809,14.9934 -2.249,8.87388 -4.3946,17.77773 -6.5619,26.67021 -0.1158,0.48679 -0.4382,1.12448 0.04,1.51309 0.4837,0.38654 1.0294,-0.0496 1.4366,-0.32557 1.5079,-1.02319 2.9445,-2.1456 4.4659,-3.14812 0.9663,-0.63769 1.2381,-1.34669 0.8867,-2.47117 -0.7648,-2.4474 -1.0376,-4.88136 0.5819,-7.17579 0.278,-0.38861 0.217,-1.01803 0.3069,-1.53686 0.4207,-2.54041 0.7307,-5.10666 1.2806,-7.6202 1.82,-8.30544 3.5987,-16.61295 4.2654,-25.11682 m 0.6346,-11.56725 c -1.8759,-4.038 -3.2856,-7.44348 -4.5745,-10.91923 -2.5745,-6.96185 -5.6141,-13.75833 -8.0305,-20.76979 -0.8516,-2.47117 -2.3967,-3.46129 -4.4183,-4.32946 -0.3969,-0.16846 -0.8919,-0.42271 -1.2723,-0.0258 -0.3917,0.41238 -0.037,0.8568 0.1241,1.26194 1.5689,4.02456 3.0799,8.08013 5.1862,11.86904 3.3497,6.01721 5.7309,12.45403 8.2992,18.81229 0.3339,0.83303 0.6677,1.35703 -0.2222,2.08463 -0.8754,0.7245 -1.91,1.09554 -2.7037,0.52917 -1.8283,-1.31258 -4.0246,-2.15904 -4.6457,-4.90513 -0.7359,-3.23081 -2.0133,-6.35517 -3.2205,-9.46195 -2.1962,-5.65341 -5.5035,-10.80761 -7.5747,-16.52613 -0.7493,-2.06602 -1.694,-4.05556 -2.5321,-6.09058 -0.6853,-1.66088 -2.5529,-2.37608 -3.6381,-2.04225 -1.1637,0.36277 0.024,2.02158 0.4631,2.86597 2.7357,5.24619 4.8286,10.74456 6.6352,16.35869 0.7276,2.26446 2.3234,4.13515 2.9662,6.35 0.8868,3.05821 1.6589,6.11746 3.4158,8.82117 0.6326,0.96842 1.1566,2.01641 1.2279,3.15123 0.056,0.89917 0.2191,2.08256 -1.1937,2.30993 -3.6246,0.58705 -7.3867,-2.59829 -7.6089,-6.41614 -0.027,-0.44959 -0.217,-0.88367 -0.3173,-1.32602 -1.5751,-6.83369 -5.0033,-13.00696 -6.9773,-19.70319 -1.4635,-4.95577 -4.3419,-9.35033 -5.9325,-14.27716 -0.4868,-1.50275 -3.5688,-2.9869 -5.1087,-2.67477 -0.9974,0.20153 -0.9261,0.77824 -0.7225,1.51618 0.4951,1.7725 1.54,3.31039 2.1673,5.00331 3.9822,10.7425 9.5912,20.74292 14.1046,31.24151 0.6542,1.52135 1.5245,2.95279 2.2573,4.4452 0.9498,1.93684 2.2882,3.04065 4.6353,2.90835 2.9497,-0.16743 5.9159,-0.0558 8.877,-0.0589 3.3259,-0.002 6.6518,-0.002 10.3343,-0.002 m -27.6438,11.7812 c -1.2775,3.29179 -4.1559,2.77089 -6.5981,3.3662 -5.2472,1.28261 -10.6019,1.603 -15.9308,2.20142 -0.3018,0.0341 -0.6036,0.0868 -0.9054,0.11368 -1.1585,0.10026 -2.3967,0.17157 -3.1326,-0.88677 -0.74,-1.07693 -0.01,-2.19831 0.3524,-3.2308 0.2408,-0.69557 0.7835,-1.28571 1.1586,-1.93684 0.3204,-0.5581 0.5581,-1.14205 -0.2852,-1.48104 -0.6253,-0.25115 -1.3467,-0.66663 -1.7756,0.2222 -1.3364,2.79157 -2.9239,5.51388 -3.8261,8.4429 -0.5664,1.83348 -1.4604,3.43442 -2.2304,5.12527 -0.5137,1.12654 -1.479,1.79627 -2.775,1.46761 -1.1617,-0.29352 -1.6175,-1.2113 -1.7756,-2.36988 -0.4021,-2.96106 1.0955,-5.12837 3.0189,-7.01973 2.7461,-2.70164 4.3202,-6.24665 4.3842,-9.72343 0.063,-3.41582 -1.0666,-7.10655 -3.9904,-9.72654 -2.1405,-1.91513 -4.3181,-3.79926 -6.0327,-6.1588 -1.2826,-1.76733 -0.5974,-6.15673 1.3126,-7.18612 1.5534,-0.83613 2.3254,0.60564 2.8153,1.48104 0.68,1.2175 1.0501,0.89194 1.4976,0.0558 1.2113,-2.26239 3.1719,-2.66444 5.5479,-2.72231 5.7764,-0.14573 11.4805,-0.99736 17.1504,-2.13527 1.6382,-0.32763 1.0025,-1.15859 0.646,-1.93684 -1.8738,-4.07416 -3.3445,-8.31577 -5.3289,-12.34756 -1.3312,-2.70681 -2.2066,-5.63584 -3.3652,-8.4305 -0.8154,-1.96784 -1.3074,-4.02146 -3.5718,-5.20898 -1.8418,-0.96842 -2.4826,-6.58048 -1.3467,-8.25789 0.3617,-0.53434 0.9209,-0.62219 1.4097,-0.39171 5.8581,2.75952 12.2659,3.8871 18.2717,6.19393 7.1417,2.74609 14.3061,5.44774 21.3786,8.37159 8.9803,3.7145 18.2511,6.62285 27.3451,10.02522 10.1679,3.80442 20.5373,6.96392 30.9407,10.03247 10.4635,3.08508 20.9331,6.14639 31.7314,7.93026 2.156,0.35657 4.2406,1.15342 6.3624,1.73736 0.9499,0.26252 1.8945,0.64079 2.8608,0.71521 1.6454,0.12712 3.884,-0.36277 4.4339,1.4552 0.7731,2.56316 1.8707,5.32061 0.4206,8.107 -0.4175,0.80616 -0.9415,1.33532 -1.8541,1.49449 -3.5429,0.61598 -6.3004,2.68304 -9.1519,4.70668 -1.6619,1.18236 -3.8344,1.5317 -5.6172,2.73059 -7.213,4.84725 -14.7774,9.22837 -21.2804,15.03887 -3.0293,2.70165 -5.8136,5.68338 -9.0248,8.21036 -2.8339,2.23035 -5.673,4.4266 -8.6599,6.46885 -4.5672,3.12229 -9.123,6.24148 -13.7614,9.25732 -3.9212,2.55075 -7.8735,5.06429 -11.7265,7.74526 -7.3184,5.0984 -15.2579,9.27075 -22.1846,14.9748 -1.4604,1.19889 -2.9477,2.08773 -3.3053,4.21989 -0.2697,1.5875 -2.0898,1.46038 -3.1936,1.44281 -2.6644,-0.0372 -5.0033,0.53123 -7.0879,2.22209 -1.0904,0.88366 -2.7781,1.24333 -3.7838,0.98909 -2.0556,-0.5178 -3.362,0.60151 -4.778,1.37045 -2.4102,1.31569 -4.6757,0.72554 -5.5138,-1.77457 -0.7431,-2.22001 -0.9313,-4.24676 0.016,-6.67556 1.4789,-3.78685 1.728,-7.96437 2.4949,-11.97756 1.265,-6.63319 2.4371,-13.28498 3.9874,-19.87062 0.8785,-3.72484 0.8226,-7.66258 1.881,-11.39052 0.3183,-1.11931 -0.01,-1.57613 -1.1958,-1.45521 -3.6907,0.37827 -7.397,0.63252 -11.0753,1.11725 -5.0323,0.65629 -10.1203,0.22944 -15.1495,0.94981 -1.4004,0.2005 -2.4319,-1.77871 -1.6536,-3.1378 0.7824,-1.37872 1.788,-2.63859 2.7698,-3.89226 0.4734,-0.60565 1.2248,-1.16996 1.9761,-0.92605 3.1275,1.03146 6.3004,0.20361 9.4403,0.31213 4.779,0.16433 9.525,-0.60565 14.2668,-1.16996 1.4128,-0.16639 2.4071,-1.12654 2.5105,-2.53731 0.1013,-1.37046 -0.399,-2.79673 0.4868,-4.33668"
       id="path9421" />
    <path
       style="fill:#231f20;fill-opacity:1;fill-rule:evenodd;stroke-width:0.26458332"
       inkscape:connector-curvature="0"
       d="m 1385.6949,274.07698 c 3.0954,-1.12447 3.0954,-1.12447 1.141,-3.30729 -0.2274,1.15549 -1.5307,1.77767 -1.141,3.30729 m -4.0029,-15.85949 c 1.6361,-1.20923 2.4526,-2.94452 3.4014,-4.58784 0.2056,-0.3576 0.3328,-0.7245 -0.053,-0.98185 -0.4724,-0.30696 -0.6677,0.17467 -0.8145,0.46095 -0.8661,1.69293 -1.6929,3.40445 -2.5342,5.10874 m 1.539,-17.71365 c -9.3276,1.27744 -18.8547,1.2299 -28.3001,2.51044 -4.5352,0.61908 -9.0744,1.51412 -13.7274,1.51102 -2.9414,0 -5.7619,1.2361 -8.5514,2.22519 -2.8174,1.00045 -5.9252,0.99735 -8.5876,2.63549 -0.7265,0.44442 -2.035,1.38597 -2.836,0.12403 -0.8692,-1.37356 -1.5926,-2.90008 -0.7534,-4.66742 1.0294,-2.16627 2.6706,-3.81785 4.4059,-5.36815 1.8759,-1.68258 2.9208,-4.15375 5.3609,-5.3237 0.9747,-0.46509 1.5731,-1.35392 0.1334,-2.38332 -0.7359,-0.524 -1.3736,-1.56166 -1.5317,-2.46083 -0.8734,-4.94543 -4.4814,-8.08013 -7.4838,-11.60239 -1.7064,-2.00298 -1.6661,-3.43132 0.4072,-6.50607 1.295,-1.91822 2.5849,-1.35185 4.469,-0.7431 8.9348,2.88664 17.4976,6.92671 26.8686,8.50387 8.7395,1.47071 17.1597,4.32532 25.7669,6.39238 2.3761,0.57361 4.7253,1.0604 7.1851,0.80098 1.0997,-0.11576 1.6206,-0.34313 0.7566,-1.49758 -2.7068,-3.62666 -5.3475,-7.29361 -8.199,-10.82105 -2.1136,-2.61379 -3.5254,-5.79396 -5.2979,-8.68887 -2.989,-4.88136 -5.2699,-10.16476 -8.8201,-14.74226 -2.1642,-2.79156 -3.5595,-6.17533 -5.6762,-9.01237 -2.2169,-2.96312 -3.7269,-6.38927 -6.3014,-9.11985 -1.2723,-1.34669 0.2264,-4.2416 2.5291,-4.84932 1.1007,-0.29145 1.8293,-0.72243 2.5145,-1.65674 0.9323,-1.27021 2.2407,-1.60301 3.4572,-0.23255 6.7706,7.65121 15.8161,11.72642 24.7706,16.0259 5.8745,2.8174 11.5476,6.05337 17.295,9.13329 2.8092,1.50275 5.7888,2.60863 8.7241,3.81992 9.5994,3.96152 19.2122,7.96127 28.3228,12.90981 5.1748,2.81223 10.2464,5.90765 15.5866,8.34471 3.8137,1.74356 7.398,4.2416 11.8101,4.67465 2.3048,0.22531 3.1327,1.76216 3.0696,4.55889 -0.045,2.01642 -1.7136,4.33979 -3.4034,4.68912 -2.9042,0.59738 -5.6234,1.53686 -7.6791,3.84679 -1.2712,1.42627 -2.8825,2.41846 -4.4411,3.5109 -4.0535,2.85254 -7.8662,6.05648 -11.9693,8.8315 -3.5501,2.39986 -7.1665,4.69946 -10.6381,7.21817 -4.0917,2.9714 -8.2486,5.84977 -12.3599,8.7943 -3.8045,2.72024 -7.5045,5.59139 -11.3937,8.18348 -8.1473,5.43222 -16.3886,10.72699 -24.5938,16.07137 -3.9936,2.60035 -8.0037,5.18004 -11.9817,7.8052 -0.7493,0.49506 -1.3942,1.14825 -2.0733,1.74563 -1.2402,1.09038 -2.2128,2.66754 -4.3511,1.69086 -0.7473,-0.34107 -1.5689,0.25941 -2.1932,0.9002 -1.4841,1.51825 -3.0416,2.96519 -4.5051,4.50308 -2.1115,2.22002 -5.6782,1.87069 -7.3215,-0.72243 -1.3302,-2.096 -1.7849,-4.0349 0.186,-6.10712 0.8061,-0.84646 1.0955,-2.15801 1.1451,-3.39928 0.1044,-2.61689 1.4284,-4.35012 3.7538,-5.456 2.4826,-1.17718 3.7497,-3.54293 5.0168,-5.74125 4.1579,-7.22333 8.2062,-14.51487 12.1708,-21.84673 3.1729,-5.87354 6.166,-11.84527 9.2284,-17.77772 0.1643,-0.3173 0.3979,-0.65526 0.036,-1.23507"
       id="path9423" />
    <path
       style="fill:#231f20;fill-opacity:1;fill-rule:evenodd;stroke-width:0.26458332"
       inkscape:connector-curvature="0"
       d="m 1943.789,455.05199 c -0.9705,-0.92398 -0.055,-3.79201 -3.0159,-2.87941 0.5395,1.4614 1.6878,2.2438 3.0159,2.87941 m -2.5342,-11.95174 c 3.2256,-0.72966 3.3444,-3.57394 4.8079,-5.22033 -1.5399,1.53477 -3.5832,2.5931 -4.8079,5.22033 m 42.201,-2.15902 c 1.0314,0.0899 1.5772,-0.39172 1.9606,-0.88884 2.3844,-3.1192 4.6064,-6.36035 7.2419,-9.28421 0.3432,-0.38137 0.8703,-1.14824 -0.2625,-1.29603 -0.616,-0.0827 -1.5823,-0.7493 -1.7301,0.60566 -0.1643,1.511 -1.0315,2.64583 -1.9368,3.77547 -1.8066,2.2593 -3.1244,4.87103 -5.2731,7.08795 m -9.5539,1.69394 c 1.9626,0.36999 3.2566,0.49919 3.3972,-1.5689 0.034,-0.47646 0.4547,-0.94464 0.7534,-1.37665 1.9689,-2.85668 3.9584,-5.69889 5.9325,-8.55348 0.2749,-0.39997 0.7886,-0.78859 -0.1747,-1.79422 -2.8391,4.70464 -6.3283,8.77673 -9.9084,13.29325 m -18.8278,18.38338 c -0.2512,-2.11151 -1.9027,-3.01895 -3.1781,-4.26847 -1.849,-1.81179 -1.5793,-3.07993 0.6986,-3.92845 0.3339,-0.12505 0.8258,-0.0878 0.6222,-0.66972 -0.1488,-0.41238 -0.5188,-0.61394 -0.9002,-0.47646 -1.2568,0.45784 -2.5187,0.2749 -3.791,0.16949 -1.019,-0.0847 -1.1296,0.37828 -0.7596,1.22783 1.5317,3.49541 4.4638,5.68029 7.3081,7.94578 m 5.4157,-30.69995 c -0.7938,-0.19843 -1.4418,-0.34726 -2.0826,-0.5271 -0.7483,-0.20876 -1.14,0.28321 -0.986,0.81238 0.5633,1.95543 -1.0242,2.83392 -1.9058,4.03799 -1.942,2.65099 -3.9688,5.24412 -6.0162,7.93231 1.9183,0.68525 2.9921,0.39172 3.3972,-1.50791 0.1664,-0.77309 0.7225,-1.49551 1.2092,-2.16215 2.0526,-2.80704 4.1486,-5.58517 6.3842,-8.58552 m 21.9232,34.2129 c -2.926,-3.0055 -5.5666,-6.17532 -7.2709,-10.02212 -0.2615,-0.59016 -0.9467,-0.97359 -1.357,-1.5162 -0.5612,-0.73586 -1.3653,-0.91053 -1.9844,-0.4413 -0.6956,0.52089 0.1612,0.96531 0.4134,1.44384 0.2036,0.38653 0.2088,0.86817 0.3617,1.28365 0.8258,2.22001 1.2733,4.62192 4.0804,5.50561 1.1586,0.36793 2.2355,1.4552 2.6086,2.70163 0.5581,1.87584 1.6113,1.78594 3.1482,1.04489 m -17.0067,-21.5129 c 1.852,-0.0527 3.8199,0.8382 3.3941,-2.04224 -0.066,-0.44751 0.5632,-1.02732 0.9312,-1.50585 2.0215,-2.64892 4.0669,-5.2865 6.104,-7.92718 0.2253,-0.29662 0.5612,-0.58187 0.3762,-0.99425 -0.064,-0.14883 -0.4341,-0.32554 -0.5188,-0.27077 -1.3705,0.88159 -3.8634,-0.0527 -4.1538,2.64583 -0.074,0.68006 -0.7679,1.27537 -1.1007,1.95027 -1.3684,2.77294 -3.6938,4.97126 -5.0322,8.14419 m 8.3633,22.0979 c -4.9827,-3.86334 -9.1736,-8.36848 -13.7873,-12.40131 -0.6222,-0.54468 -1.077,-0.41548 -1.6092,-0.0847 -0.8072,0.49816 -0.1457,0.87643 0.1612,1.24127 2.0908,2.51354 4.3295,4.85756 7.0993,6.659 1.4997,0.97668 3.1037,1.93683 3.3972,3.97703 0.095,0.69557 0.5954,0.78857 1.1669,0.80719 1.1265,0.0424 2.2593,0.19532 3.5719,-0.19843 m 4.7149,-13.03385 c 1.3302,3.09025 2.402,6.21254 5.3971,7.6047 1.7301,0.80203 3.1667,1.60301 4.038,3.2856 0.4765,0.91569 1.2299,0.87334 1.9203,0.43201 0.9818,-0.62219 0.1561,-1.17822 -0.246,-1.63505 -2.4794,-2.8422 -4.9681,-5.67613 -7.4931,-8.4801 -0.8888,-0.987 -1.9606,-1.65365 -3.6163,-1.20716 m -43.6934,-9.31519 c -1.2754,-2.18591 -0.4393,-3.23908 1.6433,-3.94809 1.6795,-0.57152 2.7698,-2.10838 3.9977,-3.32279 2.373,-2.34715 4.6012,-4.8369 6.874,-7.2843 0.248,-0.26974 0.4154,-0.6377 0.555,-0.98393 1.7332,-4.30464 1.667,-4.00079 6.3159,-3.03752 4.5031,0.93636 9.1281,1.31982 13.78,1.40456 10.0511,0.17775 20.0205,-0.71935 29.9744,-1.87793 3.0768,-0.36071 6.1278,-0.99219 9.1994,-1.42936 1.9627,-0.28009 5.1036,2.58485 4.9506,4.55372 -0.083,1.079 -0.3338,1.89135 -1.7601,2.4629 -2.1848,0.87334 -4.1248,2.43705 -6.0533,3.86022 -2.6831,1.97921 -5.1542,4.26331 -7.922,6.10404 -1.9493,1.29707 -3.5605,2.98791 -5.5532,4.21783 -1.7652,1.09037 -2.5693,2.30166 -1.696,4.8152 1.4469,4.17029 3.2411,7.95404 6.3944,11.08046 1.2465,1.23921 2.4371,2.33371 4.2024,2.92902 1.8118,0.60875 3.206,2.10632 3.7537,3.98013 0.6832,2.33886 -0.6263,4.1217 -2.9445,3.36515 -6.1329,-2.00607 -11.8742,-0.0558 -17.7746,0.8041 -2.5187,0.36277 -5.1304,0.0475 -7.6884,0.23873 -2.8154,0.20878 -5.5677,-0.50022 -8.2982,-0.51676 -4.0452,-0.0206 -8.1515,-0.28008 -12.1781,0.51676 -0.3493,0.0682 -0.6987,0.25114 -0.9953,0.45993 -1.6164,1.12757 -3.2174,0.98703 -4.0638,-0.76171 -2.836,-5.83737 -6.9588,-10.66292 -11.5197,-15.17428 -2.0082,-1.98644 -4.4556,-3.15121 -7.2316,-3.31761 -6.4895,-0.38137 -13.0142,-0.30697 -19.4831,-0.1478 -6.2601,0.15296 -12.4809,-0.45786 -18.741,-0.26458 -5.4446,0.1664 -10.9698,0.29559 -16.4361,-0.2894 -1.5338,-0.1633 -1.8676,0.51885 -1.1059,1.69913 3.1967,4.95784 5.7257,10.28671 8.5142,15.46468 1.6484,3.06131 3.1543,6.20739 4.9371,9.19737 1.6247,2.71923 3.2836,5.4188 4.9455,8.11733 0.8516,1.38081 0.772,6.98461 -0.2357,8.1225 -0.8971,1.01597 -1.942,0.4341 -2.9238,0.0476 -2.1301,-0.83611 -3.0055,-2.95278 -4.3677,-4.51342 -3.2019,-3.66694 -7.1334,-6.44301 -11.25,-8.72091 -5.0064,-2.77296 -9.4991,-6.21771 -14.0684,-9.53534 -4.7201,-3.43234 -9.5487,-6.65179 -14.457,-9.79268 -3.2886,-2.10323 -5.9634,-5.37332 -9.6521,-6.60115 -2.7357,-0.91053 -4.5031,-2.96312 -6.9339,-4.16718 -2.9167,-1.44693 -2.8681,-5.28857 -0.1778,-7.59333 5.0085,-4.28088 10.017,-8.5597 14.9645,-12.90672 3.5429,-3.10886 6.8367,-6.45335 10.2236,-9.71309 6.1785,-5.95003 11.9435,-12.27937 17.6506,-18.66863 2.4712,-2.76985 4.9165,-5.5666 7.3556,-8.36642 1.2114,-1.39113 3.5637,-1.50791 4.1455,0.12713 0.707,1.98438 1.9028,4.00905 1.1431,6.3345 -1.5348,4.69119 -3.6194,9.16016 -5.4374,13.73455 -2.8598,7.18613 -6.6249,13.99606 -8.9348,21.40955 -0.6346,2.04846 -0.6904,4.17856 -0.7276,6.28179 -0.039,1.97922 1.6619,1.65881 2.8494,1.67431 5.7733,0.0713 11.5497,0.0796 17.325,0.0744 14.5284,-0.0103 29.0546,-0.0372 43.5798,-0.061 0.3648,-0.003 0.7328,-0.0455 1.3364,-0.0817"
       id="path9425" />
    <path
       style="fill:#231f20;fill-opacity:1;fill-rule:evenodd;stroke-width:0.26458332"
       inkscape:connector-curvature="0"
       d="m 2114.3532,453.65464 c 4.1538,3.87885 8.0378,7.81349 12.2577,11.35332 3.1595,2.651 6.7396,4.81005 10.1554,7.1541 0.5602,0.38653 1.3891,0.59013 1.4284,1.34152 0.1457,2.93417 2.5455,3.38169 4.5403,4.36356 0.9973,0.48884 2.5476,0.46302 2.5745,2.13526 0.039,2.14249 0.039,4.35735 -1.511,6.02134 -0.7649,0.81545 -1.942,1.12757 -3.0665,0.1478 -2.2035,-1.92548 -4.839,-2.43086 -7.6626,-1.99679 -1.5213,0.23461 -2.466,-0.33073 -3.0479,-1.70429 -0.8805,-2.08978 -2.7306,-2.64273 -4.6881,-3.47368 -3.7703,-1.60404 -7.554,-3.05099 -11.4297,-4.37391 -1.8449,-0.62942 -3.6122,-1.80454 -5.5852,-2.32336 -4.6178,-1.21129 -8.8243,-3.61632 -13.5207,-4.58782 -1.8913,-0.39172 -3.5481,-1.55858 -5.0064,-2.55593 -2.9786,-2.02882 -6.5184,-2.39159 -9.5725,-4.04524 -1.2671,-0.68522 -2.6696,-1.46346 -4.2726,-0.88366 -0.5085,0.18294 -0.9602,-0.0372 -1.1751,-0.45476 -1.6082,-3.10677 -4.0484,-5.91074 -3.7197,-9.75236 0.053,-0.58293 0.1426,-1.18856 0.7803,-1.53273 1.3787,-0.73795 2.2913,-1.93064 3.1543,-3.20601 0.3886,-0.57671 0.7617,-0.97152 1.91,-0.87333 1.9337,0.16639 3.5667,-1.40767 5.0188,-2.7037 6.2363,-5.55935 10.9254,-12.5181 16.706,-18.47641 4.7914,-4.93715 9.218,-10.24742 14.6502,-14.55209 1.4418,-1.14307 2.1963,-2.87318 2.9342,-4.54543 0.368,-0.83304 0.8444,-1.37046 1.9048,-1.14827 2.0113,0.42067 4.5744,-0.35758 5.4054,2.52699 0.402,1.39112 0.9343,2.98172 -0.5788,3.96875 -4.4773,2.91557 -6.2529,7.51374 -7.7742,12.24213 -1.4315,4.45556 -2.7037,8.9638 -3.9212,13.4855 -0.6026,2.24896 -0.6904,4.61161 -1.3539,6.87088 -0.4507,1.5379 0.4413,1.90273 1.881,1.89757 11.5434,-0.032 23.0921,0.005 34.6418,0.008 8.4325,0 16.8641,0.19325 25.2966,-0.14573 9.2367,-0.36483 18.4754,-0.51885 27.712,-0.73795 1.1989,-0.03 2.2759,0.0259 2.2728,-1.68362 -0,-0.58394 0.6087,-0.93843 1.2867,-1.0976 5.8394,-1.38081 11.3585,-3.69591 16.9302,-5.86322 3.175,-1.23298 6.472,-2.06912 9.893,-2.5187 4.7232,-0.61907 9.1963,-2.56109 14.0095,-2.82051 5.9107,-0.32245 11.8349,-0.61598 17.7136,0.27286 2.281,0.34417 4.2365,1.82314 5.9748,3.18535 4.2168,3.29385 8.3602,6.83987 10.049,12.20803 2.4547,7.80521 0.8548,14.45906 -7.7628,17.51211 -0.8495,0.30178 -1.6567,0.76274 -2.4236,1.24436 -3.207,2.01539 -6.7366,2.02676 -10.327,1.74046 -4.0907,-0.32039 -8.1866,-0.32555 -12.2877,-0.31213 -5.0715,0.0185 -9.9559,-1.07381 -14.8828,-2.34921 -7.2305,-1.87068 -14.4435,-3.977 -21.9149,-4.83174 -0.4951,-0.0558 -0.9633,-0.4041 -1.4418,-0.62426 -1.8789,-0.86505 -3.9822,-1.76421 -5.4426,-2.91042 -5.3981,-4.24365 -10.9615,-1.89444 -16.5416,-1.33633 -1.6536,0.16434 -3.3393,0.0424 -5.0116,0.0589 -3.7703,0.0341 -7.5457,0.1261 -11.3109,0.24805 -6.1567,0.20153 -12.3507,0.43098 -18.5343,-0.1292 -4.4844,-0.41029 -9.125,-1.30429 -13.4596,-0.56946 -5.2462,0.88987 -10.3787,0.37621 -15.5546,0.46302 -2.0764,0.032 -4.1744,-0.59531 -6.2994,0.66971"
       id="path9427" />
    <path
       style="fill:#231f20;fill-opacity:1;fill-rule:evenodd;stroke-width:0.26458332"
       inkscape:connector-curvature="0"
       d="m 1588.1342,778.76763 c 1.0108,-1.95337 2.3916,-2.35646 3.3259,-0.77619 2.5053,4.25194 6.5081,4.4173 10.6598,4.24781 0.892,-0.0362 1.511,0.27077 2.2882,0.55602 4.6065,1.68775 9.2925,3.12333 14.1976,3.73415 4.0959,0.51159 7.9323,2.01641 11.621,3.72692 4.254,1.97299 8.2362,4.47619 11.7554,7.66876 7.585,6.88435 10.1223,15.36134 7.9478,25.24601 -1.9027,8.6527 -3.6298,17.33124 -4.9186,26.09763 -0.3203,2.18178 0.8517,3.81373 1.8046,5.50148 0.6511,1.15136 1.0501,2.32648 1.3467,3.58428 0.341,1.43764 -0.2491,2.49182 -1.5183,2.86494 -1.1069,0.32557 -1.9792,1.01594 -2.6065,1.72185 -2.0878,2.34715 -4.4824,2.10736 -6.8234,0.92811 -4.7997,-2.41639 -7.491,-5.93349 -5.9986,-10.55852 0.7617,-2.37196 2.0113,-4.30673 4.4907,-5.31855 2.2831,-0.93223 3.0448,-4.72011 1.3673,-6.44612 -0.7276,-0.7493 -0.9208,-1.5844 -0.7462,-2.50113 0.3597,-1.86037 0.7328,-3.72483 1.2465,-5.54694 3.1326,-11.17348 1.5317,-21.87773 -3.8468,-31.90504 -2.1249,-3.96875 -5.9748,-6.40374 -10.8035,-7.028 -4.625,-0.59944 -9.2077,-0.0289 -13.8079,-0.0641 -5.3558,-0.0444 -10.7766,0.21291 -15.9898,-1.21645 -7.8682,-2.15492 -15.2848,-5.3971 -20.7666,-11.68611 -4.408,-5.0581 -5.3951,-11.23964 -4.3088,-17.75706 0.8723,-5.22553 3.7837,-8.86148 8.1452,-11.97962 6.2684,-4.47622 12.9356,-7.91168 20.2613,-10.05727 6.6942,-1.95958 13.2902,-4.16615 19.8572,-6.51226 2.8102,-1.00254 5.8208,-2.38332 8.6413,-2.48669 3.9874,-0.14261 7.7257,-1.54821 11.65,-1.53477 6.228,0.0206 11.8845,-2.21279 17.5152,-4.39457 4.3026,-1.66812 6.6486,-5.25963 8.0305,-9.58599 2.7223,-8.52659 2.0929,-16.95193 -0.8733,-25.2181 -1.8283,-5.08701 -6.1247,-7.75043 -10.7684,-10.03866 -5.8053,-2.85977 -12.1873,-4.53202 -17.4739,-8.4677 -1.0418,-0.77411 -2.4835,-1.16686 -2.1455,-2.9869 0.098,-0.52502 -0.6191,-0.73793 -1.0346,-1.06556 -5.9655,-4.67982 -11.4164,-9.7989 -13.2654,-17.55346 -1.2888,-5.3888 -0.4929,-10.71769 0.8992,-15.99282 1.0263,-3.89123 2.6593,-7.6078 3.2918,-11.6086 0.071,-0.45473 0.6429,-1.01801 -0.093,-1.39938 -0.5023,-0.26768 -0.9126,0.14261 -1.1989,0.43408 -3.0313,3.06543 -7.2357,4.6705 -10.0087,8.04394 -0.7173,0.87127 -1.4531,1.09762 -2.5828,0.80616 -3.9687,-1.02113 -5.4136,-4.62399 -2.8753,-7.69668 1.2248,-1.48725 1.725,-3.24114 2.5663,-4.87103 1.14,-2.20141 3.3838,-3.56153 4.7997,-5.64615 3.1988,-4.70154 7.3815,-8.63307 10.6309,-13.32426 1.9182,-2.76778 4.101,-2.93418 6.0006,-0.16949 1.788,2.61172 4.2251,4.72839 5.641,7.55613 0.8858,1.77559 2.0692,3.35483 2.9601,5.10976 2.4763,4.86482 6.1019,8.83666 10.0355,12.50982 1.6092,1.50275 1.4449,3.25046 1.4077,4.99298 -0.029,1.29915 -1.2144,1.82832 -2.3409,1.48415 -2.525,-0.76999 -4.8132,-1.49863 -6.7449,-3.94705 -1.9657,-2.49079 -5.2916,-4.02868 -8.4687,-5.19039 -1.3105,-0.47852 -1.0087,0.79685 -1.1617,1.39216 -0.9901,3.87162 -1.8128,7.78867 -2.9104,11.62825 -1.1668,4.06485 -2.4846,8.09459 -2.7647,12.33517 -0.2542,3.85403 -0.4155,7.76179 2.2035,11.05667 1.5162,1.90582 3.3176,3.5419 5.3423,4.87929 6.0141,3.95946 12.8426,6.14331 19.4603,8.76638 8.2496,3.27216 15.9649,7.29983 21.7031,14.35159 4.562,5.6007 7.8744,11.80393 7.615,19.18747 -0.1612,4.655 -1.0635,9.27074 -2.7647,13.73352 -1.6143,4.23436 -3.4902,8.21965 -6.1701,11.91453 -3.9688,5.46941 -9.525,8.34366 -15.7086,10.18127 -7.7071,2.28928 -15.7613,1.50379 -23.643,2.26756 -8.3954,0.81857 -16.9726,0.43204 -25.0373,3.57913 -0.6273,0.24701 -1.2567,0.10025 -1.8996,0.0868 -2.7709,-0.0527 -5.6947,-0.20879 -7.5251,2.63136 -0.2119,0.33073 -0.7566,0.66249 -1.1276,0.64492 -6.7624,-0.35552 -10.1462,3.51607 -12.2235,9.36792 -1.0532,2.96312 -1.5503,6.06784 -0.9447,8.94416 0.7018,3.30832 2.1642,6.59079 5.1811,8.76845"
       id="path9429" />
    <path
       style="fill:#231f20;fill-opacity:1;fill-rule:evenodd;stroke-width:0.26458332"
       inkscape:connector-curvature="0"
       d="m 1364.0631,652.11489 c -1.9296,2.50217 -2.5022,5.39811 -3.76,7.97264 -2.2944,4.69739 -5.2079,9.02994 -7.6605,13.62604 -0.7441,1.39216 -1.9037,2.6293 -1.2185,4.59301 0.4775,1.36734 -1.6278,2.86184 -3.0138,2.30373 -2.3419,-0.94568 -3.9842,-2.78122 -5.057,-4.91443 -0.7721,-1.53686 -0.7121,-3.27834 0.8072,-4.77903 1.7042,-1.68775 2.1724,-4.12483 3.0871,-6.2756 4.4049,-10.35492 7.182,-21.20593 9.6594,-32.14066 1.2567,-5.54075 2.466,-11.09184 4.5434,-16.39694 0.6046,-1.5503 1.2505,-3.09026 2.0329,-4.55063 0.9674,-1.81797 4.2085,-2.10944 5.8456,-0.81028 2.2717,1.80247 4.3285,3.63802 5.2927,6.5536 0.5644,1.70947 -0.1539,3.3321 0.4961,5.10666 2.2345,6.09577 5.6317,11.5528 8.6321,17.23824 2.9094,5.50974 6.3975,10.63398 9.6717,15.90289 1.2971,2.08566 3.3714,3.41995 5.1811,4.98679 1.3984,1.21232 2.4216,2.28822 2.0185,4.41005 -0.2615,1.37358 -0.7834,2.68202 -0.8785,4.1362 -0.1075,1.70842 -1.9544,2.07841 -3.7114,0.66971 -1.7642,-1.41697 -3.7517,-2.82773 -4.7253,-4.84827 -1.6092,-3.33521 -3.5677,-6.27145 -6.35,-8.7385 -2.342,-2.07635 -4.9847,-3.70417 -7.5055,-5.50558 -1.4066,-1.0046 -2.374,-0.57569 -2.3482,1.34358 0.042,3.2463 0.2284,6.50501 0.02,9.73272 -0.4309,6.62699 -1.2247,13.22917 -1.5988,19.85719 -0.2667,4.7222 0.2356,9.49918 -0.2067,14.19553 -0.4258,4.51445 -1.2413,9.01547 -1.2196,13.54336 0.041,7.74629 -0.4134,15.47603 -0.3741,23.22647 0.033,6.29111 -0.1644,12.6101 -0.089,18.91771 0.06,4.91546 0.018,9.83507 0.1994,14.74536 0.1106,3.01583 0.5943,6.01618 0.8517,9.02581 0.4516,5.28029 0.8836,10.56265 1.2712,15.84709 0.2925,3.99354 2.1094,7.56026 3.0665,11.37089 1.3219,5.24619 3.5274,10.18334 6.1619,14.87763 2.2334,3.97806 5.6958,7.01352 8.9173,10.18852 3.2525,3.20601 6.9153,5.8746 11.0939,7.79489 4.6632,2.13733 9.4237,4.02249 14.2988,5.59448 1.3322,0.43098 2.9228,1.05937 3.4892,-1.34151 0.2625,-1.11104 1.5927,-0.91261 2.3048,-0.28835 2.1043,1.85 4.6095,1.92649 7.1902,2.07738 1.2248,0.0724 2.5177,0.24701 3.6174,1.14205 0.9074,0.74001 2.0846,0.092 3.0572,-0.10851 2.6406,-0.54364 5.2689,-0.68006 7.9282,-0.35245 1.8541,0.22945 3.6163,-0.007 5.3268,-0.79581 1.726,-0.79582 3.5781,-0.22945 5.3671,-0.32039 2.2779,-0.12091 4.5206,-0.14573 6.7324,-0.89606 1.9358,-0.65424 4.0049,-0.72348 6.0472,-0.9457 7.214,-0.78238 14.5335,-0.42477 21.6658,-2.36472 1.9503,-0.53226 3.914,-1.26502 5.9955,-1.58025 3.45,-0.524 5.9056,0.29972 7.799,3.37963 0.3101,0.5085 0.739,0.96015 1.1731,1.37356 2.898,2.77297 2.2893,6.41615 -1.1493,8.44187 -3.4623,2.03708 -7.0373,2.5404 -10.5637,0.83302 -3.1223,-1.51101 -6.2466,-1.0232 -9.3059,-0.63664 -3.021,0.37724 -6.0533,0.47437 -9.0661,0.84233 -6.0027,0.73482 -11.9838,1.69187 -18.001,2.281 -10.0438,0.98184 -20.098,0.75239 -30.1852,0.35448 -6.5381,-0.2563 -13.0059,-0.80719 -19.4448,-1.79419 -4.3501,-0.66974 -8.416,-2.39778 -12.5284,-3.90676 -7.7556,-2.84839 -14.3878,-7.31633 -19.944,-13.45861 -6.3252,-6.99389 -9.8299,-15.11432 -10.8676,-24.49153 -0.9157,-8.27648 -0.2604,-16.51473 -0.1499,-24.77264 0.072,-5.23687 -0.083,-10.4779 -0.1508,-15.71583 -0.1664,-12.68449 -0.088,-25.38037 -0.584,-38.05348 -0.5075,-13.01835 0.769,-25.96431 0.8888,-38.94958 0.079,-8.42841 0.2026,-16.85891 0.094,-25.28837 -0.047,-3.6525 0.3194,-7.27398 0.3732,-10.91407 0.014,-0.85264 0.075,-1.62779 -0.5406,-2.55074"
       id="path9431" />
    <path
       style="fill:#231f20;fill-opacity:1;fill-rule:evenodd;stroke-width:0.26458332"
       inkscape:connector-curvature="0"
       d="m 174.80275,185.33455 c 0.9157,-8.03466 0.36277,-16.15199 0.49713,-24.26105 0.0878,-5.07463 0.23873,-10.15235 0.54776,-15.21664 0.19844,-3.29387 -0.0734,-6.53396 -0.41238,-9.78442 -0.5984,-5.70095 0.27803,-11.36777 0.39378,-17.05425 0.2067,-10.16786 0.46818,-20.339838 0.8599,-30.503568 0.43201,-11.24067 -0.39172,-22.47098 -0.0713,-33.70853 0.0217,-0.65836 0.34933,-1.59371 -0.33591,-1.87896 -0.72242,-0.30075 -1.33324,0.33898 -1.82004,1.00356 -2.12183,2.90007 -4.86894,5.30508 -6.4244,8.66923 -0.9126,1.9761 -4.69636,3.23805 -6.08542,2.37919 -2.51354,-1.55443 -3.83336,-5.80017 -2.39469,-8.00777 3.45096,-5.28445 6.1278,-10.97505 8.77363,-16.67084 2.36263,-5.09011 4.47207,-10.29187 6.36342,-15.57838 0.38346,-1.06865 0.54777,-2.04017 -0.10335,-3.02098 -0.77721,-1.16996 -0.84645,-2.15699 0.44236,-3.09854 1.49757,-1.09553 2.74608,-2.86287 4.9475,-1.50585 3.42923,2.11151 5.49838,5.09842 6.66213,9.03303 2.08772,7.05385 4.68291,13.95678 6.87916,20.97961 1.8438,5.91489 4.49792,11.55383 5.92934,17.60927 0.33901,1.43454 1.00047,3.04683 -0.61079,3.87365 -1.5503,0.79375 -2.73577,-0.34417 -3.91089,-1.49137 -2.80188,-2.74299 -3.78891,-6.30246 -4.87928,-9.84848 -0.66146,-2.14458 -2.28307,-3.75275 -3.21427,-5.75056 -0.14573,-0.3142 -0.31522,-0.77412 -0.78343,-0.70591 -0.54776,0.0796 -0.68006,0.61701 -0.709,1.02732 -0.26146,3.60702 -1.25677,7.08383 -1.10898,10.80762 0.18087,4.58989 -0.44442,9.22528 -0.87746,13.82964 -0.66146,7.05488 0.1447,14.11179 -0.12711,21.1677 -0.4527,11.772928 0.0238,23.503468 1.00457,35.253668 0.69144,8.3013 0.69869,16.66462 1.19891,24.99487 0.48472,8.08011 0.8785,16.1654 1.30225,24.25173 0.47025,9.03822 -0.25736,17.99995 -2.24173,26.80973 -1.04696,4.64261 -2.71714,9.14363 -5.1139,13.32425 -2.1146,3.68557 -4.21266,7.36701 -6.70761,10.82932 -2.22001,3.083 -5.08494,5.56347 -7.44759,8.50077 -4.90824,6.10299 -11.80291,9.49296 -18.44125,13.1558 -5.46119,3.01273 -11.10218,5.70508 -17.14831,7.4104 -1.47071,0.41547 -2.72439,1.29706 -3.99769,2.11873 -0.37828,0.24598 -0.70591,0.67074 -1.11416,0.76377 -4.50308,1.04489 -8.47183,3.98735 -13.37178,3.668 -1.08728,-0.0734 -2.21692,0.40513 -3.32589,0.63976 -6.95875,1.48309 -14.053932,1.84896 -21.100522,2.66443 -6.78098,0.78238 -13.56715,0.73586 -20.3626,0.92604 -2.69854,0.0765 -5.36813,0.98597 -8.07186,1.26916 -4.34183,0.4558 -8.4801,-0.70692 -12.18943,-2.74402 -1.94199,-1.06659 -3.33105,-0.76068 -5.05084,-0.093 -3.35484,1.30431 -6.71796,2.80498 -10.44072,1.71566 -4.15891,-1.21544 -6.94013,-4.95475 -6.96908,-9.30899 -0.0135,-2.13321 0.19326,-4.25919 1.08728,-6.24563 0.55293,-1.22679 1.38907,-1.81488 2.85769,-1.73529 1.94717,0.10541 3.9026,0.0259 5.86838,-0.31213 2.74092,-0.46921 5.19969,0.73276 6.45853,2.98484 2.21176,3.95325 5.38985,5.16557 9.67899,5.1697 6.75203,0.003 13.48031,1.00563 20.24268,0.78962 4.02146,-0.12713 7.90856,-1.30741 11.89594,-1.83967 7.94265,-1.05731 15.82951,-2.57556 23.812502,-3.35587 3.35171,-0.32764 6.19598,-1.96681 9.16016,-3.23289 4.94956,-2.11149 9.36067,-5.22862 13.95159,-8.015 1.72704,-1.04595 3.64527,-1.80869 5.4684,-2.72748 8.49355,-4.29639 15.31173,-10.71769 22.34901,-16.93231 6.9908,-6.17328 11.21381,-14.05599 14.59241,-22.43171 2.62723,-6.50812 3.33624,-13.51442 3.73827,-20.55998"
       id="path9433" />
    <path
       style="fill:#231f20;fill-opacity:1;fill-rule:evenodd;stroke-width:0.26458332"
       inkscape:connector-curvature="0"
       d="m 1468.4495,453.98021 c -11.4256,-0.15089 -22.3066,-0.23254 -33.1897,-0.82269 -6.4017,-0.34933 -12.8685,0.35967 -19.3001,0.0661 -8.3189,-0.38137 -16.5778,0.58706 -24.8667,0.83614 -3.8034,0.11885 -7.6109,0.14263 -11.4164,0.22944 -0.6811,0.0164 -1.6019,0.0114 -1.882,0.57775 -0.3545,0.71107 0.5281,1.12654 0.987,1.60507 4.4276,4.62814 9.6935,8.29199 14.4281,12.5522 3.8075,3.42408 8.324,5.96657 11.7967,9.78442 0.5911,0.64802 1.4252,1.15652 2.2406,1.50585 4.4401,1.90686 8.2972,4.57129 11.3503,8.34988 0.092,0.11679 0.2253,0.20876 0.3607,0.27491 1.4882,0.74104 2.622,2.00297 2.0774,3.57187 -0.6305,1.82626 -2.4619,2.29134 -4.3626,2.54249 -2.6654,0.34933 -5.3433,0.524 -7.9767,1.33945 -2.2583,0.69866 -4.4401,-0.15089 -5.9635,-2.16421 -3.451,-4.56716 -7.5169,-8.26617 -12.7569,-10.88306 -3.8715,-1.93373 -7.2801,-4.81726 -10.8355,-7.35769 -4.3232,-3.09025 -9.3214,-5.01158 -13.6746,-8.06669 -3.5533,-2.49288 -6.9215,-5.17798 -9.9467,-8.27442 -0.5312,-0.54467 -0.9818,-1.13999 -1.6784,-1.46246 -3.1047,-1.4211 -5.1563,-4.31808 -8.2176,-5.82599 -0.5312,-0.26252 -1.4779,-0.79891 -0.9901,-1.78078 0.4516,-0.90742 0.5447,-2.3182 1.8314,-2.36781 3.9946,-0.15399 6.7231,-2.71817 9.6273,-4.89789 4.6261,-3.47369 8.5235,-7.73906 12.3724,-12.01788 4.2695,-4.74077 9.031,-8.94 13.933,-12.9749 5.1532,-4.23852 9.7555,-9.08783 15.0409,-13.17646 2.4805,-1.92029 4.0308,-1.5503 5.2793,1.33636 1.2268,2.83702 0.1271,5.00639 -1.294,7.3711 -3.4406,5.72887 -7.9954,10.61538 -11.7708,16.07344 -3.1399,4.52996 -5.917,9.31418 -9.2873,13.69531 -0.2925,0.37825 -0.5736,0.82786 -0.3173,1.22473 0.1343,0.21185 0.6749,0.21704 1.0325,0.21704 14.2492,0 28.4633,-1.30948 42.7353,-0.86196 12.8809,0.40719 25.7762,0.23461 38.6654,0.34105 2.7915,0.0238 5.581,0.15607 8.3705,0.23773 1.1183,0.032 2.1405,0.0527 2.094,-1.58235 -0.026,-0.97358 0.6966,-1.6402 1.5079,-2.14251 1.9999,-1.23092 3.8654,-2.56934 5.394,-4.44003 1.0738,-1.31257 3.1326,-1.29397 4.5093,-1.23817 2.2696,0.0899 3.9429,-0.75448 5.3071,-2.09291 2.3596,-2.31198 5.2069,-3.69382 8.014,-5.28132 2.0361,-1.15342 3.9605,-2.15593 6.3242,-2.27271 1.1668,-0.0579 2.4587,1.33117 2.158,2.72023 -0.3173,1.46555 -0.9633,2.76987 -1.9586,3.99563 -2.6551,3.27216 -5.3071,6.5722 -7.4259,10.22779 -1.2309,2.12288 -1.0097,2.45049 1.3767,2.41638 3.1274,-0.0424 5.9872,-0.74414 8.8191,-2.42361 5.211,-3.09853 9.8382,-7.0962 15.3241,-9.74203 0.1995,-0.0951 0.3597,-0.27493 0.5354,-0.42066 2.8401,-2.29132 3.6825,-1.99263 4.3832,1.65055 0.402,2.08772 -0.2253,4.14858 -1.9286,5.15215 -2.589,1.51823 -4.4607,3.75893 -6.0937,5.99239 -1.6402,2.2438 -3.7475,3.9026 -5.5552,5.90248 -1.602,1.77353 -1.7012,2.63342 -0.2646,4.41111 3.1833,3.93464 5.9666,8.138 8.3396,12.62041 0.6532,1.23611 0.5105,2.3523 0.1519,3.49745 -0.4857,1.54823 -1.2144,1.86036 -2.8701,0.9612 -3.8974,-2.1146 -7.1158,-5.07256 -10.5792,-7.737 -1.1751,-0.90434 -2.1611,-1.97612 -2.7699,-3.27837 -1.0314,-2.20863 -3.1987,-3.5791 -4.131,-5.85494 -0.2139,-0.51882 -0.7793,-0.98184 -1.4407,-1.00769 -2.4081,-0.10334 -4.8204,-0.27284 -7.2264,-0.21185 -1.2062,0.0289 -2.1281,2.22208 -1.3591,3.44474 0.9756,1.5503 0.7575,2.93936 0.2676,4.54028 -0.6077,1.98437 -0.4196,4.15377 0.073,6.04615 0.7152,2.74299 -0.1116,5.35781 0.067,8.01915 0.08,1.18028 -0.4351,2.17247 -1.573,2.5032 -1.2754,0.37311 -2.0753,-0.73793 -2.467,-1.58541 -0.6491,-1.39941 -1.4273,-2.64584 -1.696,-4.41317 -0.9219,-6.04822 -3.4448,-11.27064 -7.6802,-16.18713 -3.4551,-4.01114 -7.1499,-1.84899 -10.0293,-2.98691"
       id="path9435" />
    <path
       style="fill:#231f20;fill-opacity:1;fill-rule:evenodd;stroke-width:0.26458332"
       inkscape:connector-curvature="0"
       d="m 1633.5764,448.22759 c 8.7653,0 17.6372,0.0724 26.5079,-0.0156 10.9358,-0.11057 21.8581,-0.65628 32.7691,-1.40973 4.8472,-0.33382 9.6914,-0.709 14.5366,-1.05108 1.1007,-0.0765 2.312,0.0558 1.5048,-1.72189 -0.2884,-0.6356 0.2408,-1.16167 0.648,-1.60403 3.8158,-4.10311 7.6368,-8.20931 11.8773,-11.88453 0.3865,-0.33901 0.7731,-0.8599 1.3756,-0.56327 0.6884,0.33589 0.8661,1.01595 0.8817,1.72701 0.051,2.33164 -1.4315,3.93155 -2.7307,5.5883 -1.7704,2.2593 -3.6349,4.44727 -5.4508,6.67556 -0.2801,0.34417 -0.6873,0.70382 -0.4971,1.19579 0.215,0.53226 0.7855,0.36483 1.1989,0.36793 2.6541,0.0238 5.3103,0.0135 8.3395,0.0135 -2.5083,-3.43233 0.5292,-4.77075 2.0537,-6.22596 3.114,-2.96624 6.6032,-5.54075 9.9797,-8.22381 0.5664,-0.45164 1.2041,-1.56061 2.0423,-0.69762 0.7803,0.80925 1.2567,1.98437 0.4919,3.11401 -0.9705,1.43867 -1.9843,2.85978 -3.0902,4.19613 -1.7116,2.07119 -3.5264,4.05556 -5.2731,6.09576 -0.2801,0.32555 -0.6749,0.8258 -0.5953,1.13274 0.1695,0.62735 0.8785,0.47852 1.3756,0.4527 2.4826,-0.15401 4.9589,-0.35245 7.4301,-0.53745 0.014,-0.2563 0.087,-0.44958 0.018,-0.53226 -2.0506,-2.6293 -2.866,-2.74299 0.524,-5.6007 3.8757,-3.268 7.7018,-6.64869 12.3527,-8.8315 0.9105,-0.42685 2.064,-1.47381 2.9817,-0.03 0.8207,1.29194 0.3814,2.70992 -0.6821,3.47475 -3.2143,2.32542 -5.5139,5.60377 -8.6465,7.98711 -1.0025,0.7648 -1.5482,1.83658 -2.2655,2.83702 0.524,0.75861 1.2516,0.41754 1.8655,0.38862 2.8071,-0.13541 5.609,-0.34936 8.4171,-0.4713 1.0366,-0.0444 1.5523,-0.38344 0.8382,-1.32292 -1.601,-2.10838 -0.6512,-3.26697 1.0449,-4.88135 2.4236,-2.30166 4.9402,-4.45037 7.5282,-6.54844 1.8676,-1.51619 4.0897,-2.18487 6.2807,-2.9869 0.7731,-0.28319 1.1638,0.0661 1.5638,0.5054 0.4206,0.45993 0.6697,1.02939 0.3462,1.65571 -0.5953,1.14308 -1.1668,2.36575 -2.3068,3.04271 -3.8075,2.2624 -5.8002,6.3531 -9.5591,9.02787 4.0927,1.79629 3.9367,5.32062 4.1144,8.66511 0.034,0.64595 -0.1302,1.43661 -0.7017,1.87584 -2.0764,1.59062 -0.5261,2.37919 0.7069,3.11714 1.8221,1.08728 3.0427,2.71714 4.2571,4.36046 0.5344,0.72242 0.7297,1.65365 0.073,2.30992 -0.6428,0.63976 -1.4076,0.1292 -2.0691,-0.28628 -3.4602,-2.18281 -7.5241,-3.7941 -10.2392,-6.67247 -3.1667,-3.36309 -6.5298,-2.56106 -10.0138,-2.23862 -3.6194,0.33073 -3.6783,0.57465 -1.4346,3.3042 2.5425,3.09851 5.2018,6.09679 7.1149,9.65523 0.1054,0.19844 0.2966,0.36483 0.3575,0.57359 0.2564,0.84958 0.8196,2.0433 0.2243,2.52698 -0.926,0.75139 -1.4945,-0.53639 -2.1611,-1.06556 -4.0566,-3.19672 -6.7603,-7.81142 -11.1548,-10.66085 -0.3019,-0.19328 -0.6171,-0.53433 -0.7018,-0.86506 -0.7328,-2.90216 -2.8412,-3.00241 -5.1646,-2.51044 -1.0821,0.23254 -2.1063,-0.0558 -3.1564,-0.0372 -0.3596,0.005 -0.8206,-0.0455 -0.9498,0.4227 -0.1271,0.44751 0.2563,0.65939 0.5664,0.86817 3.2225,2.19107 5.5935,5.271 8.3189,7.98298 0.1581,0.15812 0.2956,0.35656 0.3855,0.56328 0.3524,0.78856 1.2888,1.603 0.4558,2.45565 -0.8413,0.86714 -1.786,0.0496 -2.4454,-0.43717 -2.3647,-1.74565 -4.7676,-3.47369 -6.8977,-5.48495 -1.6371,-1.5472 -4.2644,-1.63195 -5.3971,-3.66178 -2.3606,-4.23542 -6.0379,-2.26965 -9.8506,-2.53939 3.2443,3.3972 4.961,7.10136 7.0807,10.54304 0.3328,0.54051 0.6367,1.18853 0.2005,1.68566 -0.5974,0.68318 -1.328,0.0879 -1.8438,-0.23046 -2.1115,-1.3095 -3.3734,-3.44683 -4.8183,-5.36299 -0.9787,-1.29604 -1.8707,-2.56109 -3.4851,-3.10576 -0.4258,-0.14571 -0.9942,-0.32039 -1.1741,-0.65937 -2.159,-3.98116 -6.0327,-2.68822 -9.0299,-2.38644 -7.6522,0.77309 -15.3303,0.75965 -22.9846,1.24646 -6.7924,0.43613 -13.6395,0.25114 -20.466,0.54983 -5.1666,0.22841 -10.3632,-0.10025 -15.5463,-0.22945 -1.5927,-0.0424 -3.1378,0.0734 -5.0777,0.54261 4.5165,4.39145 7.6595,9.5064 12.4778,13.19403 3.699,2.82876 7.1964,5.92934 10.1709,9.62834 1.5689,1.95234 3.1874,3.95841 5.1904,5.60689 2.8236,2.31717 3.6411,5.7888 4.3315,9.16223 0.3814,1.86243 -1.4655,3.09026 -3.3817,3.18329 -2.9579,0.13951 -5.0291,-0.79894 -6.4027,-3.49026 -0.3731,-0.73585 -1.3364,-1.21438 -2.0981,-1.70116 -3.2514,-2.0774 -6.0771,-4.67775 -8.787,-7.36907 -3.143,-3.12745 -6.9474,-5.12424 -10.9141,-6.82024 -4.2013,-1.79732 -7.8972,-4.39251 -11.6913,-6.84197 -3.8158,-2.46084 -7.3742,-5.36403 -11.3533,-7.50446 -2.961,-1.59266 -5.6813,-3.74033 -8.9565,-4.68497 -1.7694,-0.50851 -2.2862,-1.92445 -2.8836,-3.26287 -0.5457,-1.21955 -0.5715,-2.63549 -1.326,-3.81786 -0.3783,-0.59841 0.1302,-1.05005 0.4475,-1.59266 1.4573,-2.51354 4.2437,-3.3414 6.2891,-5.11183 7.2843,-6.30245 14.2875,-12.87984 20.563,-20.20858 5.7175,-6.67557 11.5445,-13.25811 17.7034,-19.53678 0.7565,-0.77515 1.4417,-1.53789 1.2733,-2.7709 -0.054,-0.38862 0.1715,-1.10795 0.4392,-1.20097 3.1822,-1.15031 6.0554,-3.67213 9.8661,-2.18282 1.8996,0.74311 2.22,2.08257 1.2588,3.86334 -3.0686,5.69577 -7.8176,10.37662 -9.8867,16.6791 -0.585,1.77559 -1.9978,3.2122 -3.0593,4.73562 -3.8623,5.5459 -5.641,12.15533 -9.3338,17.73533 -1.172,1.77046 -2.2045,3.49748 -2.7068,5.15628"
       id="path9437" />
    <path
       style="fill:#231f20;fill-opacity:1;fill-rule:evenodd;stroke-width:0.26458332"
       inkscape:connector-curvature="0"
       d="m 2026.2759,628.39852 c -0.1106,3.88088 -0.2036,8.27235 -0.1798,12.59766 0.039,5.9986 0.4072,12.06335 0.8279,18.09194 0.6748,9.6552 2.4825,19.27735 1.6701,28.98322 -0.4899,5.83118 -0.5829,11.64477 -0.4051,17.46147 0.1695,5.63893 0.2646,11.34814 1.2351,16.8765 1.141,6.45851 0.3183,12.95321 1.1482,19.34559 0.985,7.58299 1.8893,15.166 2.3234,22.7924 0.2356,4.19301 0.061,8.41293 0.3307,12.60182 0.2088,3.24321 0.2326,6.49263 0.5798,9.73997 0.3173,2.97553 -0.3472,6.042 -0.2201,9.0537 0.2118,5.13458 0.4134,10.29705 1.1937,15.36343 0.4578,2.96621 -0.2729,5.81977 0.2036,8.77773 0.8919,5.55832 0.1829,11.17039 -0.2646,16.76384 -0.1457,1.84174 -0.056,3.70004 2.3151,4.84003 4.1776,2.01435 4.7253,6.55359 1.5162,9.99834 -1.7539,1.87999 -3.2442,4.10519 -5.6462,5.22036 -3.0375,1.40972 -5.8342,-0.17259 -8.6785,-1.00873 -5.2762,-1.55133 -8.0326,-12.53463 -2.8949,-15.80885 0.8837,-0.56224 0.7731,-1.40354 0.7173,-2.5032 -0.2409,-4.76559 -0.4868,-9.58598 -0.029,-14.31747 0.9973,-10.30841 1.3312,-20.61062 0.9229,-30.948 -0.3669,-9.25523 -0.709,-18.51358 -1.1906,-27.76574 -0.9943,-19.16782 -1.7591,-38.34805 -2.775,-57.51068 -0.7411,-13.89478 -0.6904,-27.79779 -1.3994,-41.68119 -0.3411,-6.74997 -1.1597,-13.47515 -1.5958,-20.22306 -0.4475,-6.89157 -0.6935,-13.79553 -1.0397,-20.69642 -0.029,-0.56118 0.3121,-1.37872 -0.4393,-1.57922 -0.6646,-0.18293 -0.9922,0.59016 -1.3436,1.04489 -2.498,3.20395 -5.5221,6.04097 -6.7685,10.11309 -0.2512,0.82373 -0.799,1.76216 -2.1591,1.62677 -1.1803,-0.11782 -1.7456,-0.46405 -2.6138,-1.45727 -2.3471,-2.69338 -1.7756,-4.97851 -0.4392,-7.83416 2.7275,-5.84046 4.286,-12.16152 7.0538,-18.00301 2.0764,-4.38217 4.1879,-8.74988 6.257,-13.1372 0.4661,-0.98703 1.4345,-1.37253 2.2231,-1.21129 1.4811,0.29869 2.9528,1.15342 3.5502,2.5373 0.6511,1.50791 1.6061,2.54765 2.9424,3.29697 1.1059,0.61908 1.5079,1.74046 1.9627,2.72436 3.0489,6.58361 5.98,13.21057 9.5415,19.55541 0.7483,1.33945 1.7829,2.89285 1.6485,4.7842 -0.1354,1.8924 -1.141,2.80604 -2.8763,2.19315 -2.1301,-0.75139 -3.4819,-2.27584 -4.3418,-4.30154 -0.088,-0.20672 -0.088,-0.4558 -0.1851,-0.65423 -0.5291,-1.08728 -1.2309,-2.67994 -2.2892,-2.47322 -1.1555,0.22735 -0.3493,1.83554 -0.3804,2.83599 -0.037,1.13792 -0.01,2.27584 -0.01,3.89435"
       id="path9439" />
    <path
       style="fill:#231f20;fill-opacity:1;fill-rule:evenodd;stroke-width:0.26458332"
       inkscape:connector-curvature="0"
       d="m 2146.9869,217.21224 c -0.6325,1.10587 -0.987,2.05879 -0.1457,2.95589 0.3679,0.39687 1.3229,0.23564 1.3839,-0.12196 0.185,-1.05523 -0.4176,-1.91822 -1.2382,-2.83393 m 28.4158,25.25737 c 2.2438,0.29869 3.4613,-1.03766 5.056,-2.38642 -2.2561,0.0207 -3.6111,1.07694 -5.056,2.38642 m 7.9272,-14.07356 c -1.5183,-0.36173 -2.6189,-0.45785 -3.3703,0.5457 -0.154,0.20051 0.2852,1.25367 0.5818,1.31775 1.3147,0.28526 1.8418,-0.82372 2.7885,-1.86345 m -1.6805,-38.49377 c -1.9255,-1.18236 -3.6484,-1.31775 -5.7805,-1.69396 1.6484,1.97198 3.2618,2.48771 5.7805,1.69396 m -33.4481,38.76352 c -1.1586,0.3576 -0.5767,1.24437 -0.524,1.87379 0.082,0.98185 -0.1085,2.25723 1.511,2.24586 0.7483,-0.007 1.2299,-0.31213 0.9178,-1.10795 -0.4362,-1.10587 -0.217,-2.66237 -1.9048,-3.0117 m 41.921,12.74858 c 2.2427,-0.0723 4.0555,-0.0217 5.6058,-1.16996 0.3524,-0.25941 0.7648,-0.62218 0.5746,-1.11621 -0.1911,-0.47955 -0.7648,-0.60358 -1.172,-0.46819 -1.6701,0.54984 -3.5326,0.76688 -5.0084,2.75436 m -18.987,-31.91227 c -2.6779,-1.28777 -4.6829,-3.41788 -7.7391,-1.9761 1.8738,1.82004 2.7885,2.06085 7.7391,1.9761 m 54.0143,2.4474 c 1.2681,1.13585 2.7068,1.12241 3.8953,1.72806 1.2196,0.62425 0.7349,2.75952 2.8174,2.8391 -1.1875,-1.69912 -1.3994,-3.3786 -1.2774,-5.44566 -1.725,0.96325 -3.5037,0.0558 -5.4353,0.8785 m -17.8325,27.83499 c 2.7595,-0.25425 5.0901,0.13746 7.215,-1.13068 0.3308,-0.19844 0.7225,-0.39894 0.6119,-0.80615 -0.056,-0.20981 -0.4713,-0.47646 -0.7039,-0.46095 -2.3636,0.1726 -4.9826,-0.4868 -7.123,2.39778 m -21.331,7.42901 c -3.7827,-0.15607 -6.6673,0.66662 -9.1674,3.31556 4.0349,1.37562 6.2518,-1.19063 9.1674,-3.31556 m 6.5515,-41.31428 c 3.2567,2.71715 6.8234,3.47886 11.1704,2.13734 -3.7538,-1.48105 -7.0321,-3.61942 -11.1704,-2.13734 m 57.8084,19.0283 c -4.1538,-0.26459 -7.3846,0.53227 -10.0087,3.18327 -0.3917,0.39377 -0.7783,1.19579 0.034,1.07693 1.7063,-0.24598 3.5512,0.60048 5.0849,-0.39687 1.57,-1.01906 2.9559,-2.3151 4.8897,-3.86333 m -59.8992,30.84566 c -4.4607,-1.00355 -9.032,0.97359 -10.6857,4.52893 4.5558,0.90743 7.5696,-1.83038 10.6857,-4.52893 m -2.1053,-36.33267 c -0.7803,-0.69659 -1.4738,-1.36012 -2.2149,-1.96887 -2.2727,-1.86242 -4.7304,-3.23597 -7.8341,-2.78019 -0.4393,0.0661 -0.9498,0.0207 -1.1721,0.51573 -0.1932,0.42788 0.122,0.77515 0.4228,0.93638 3.3259,1.7725 6.0854,5.24102 10.7983,3.29695 m 4.1641,30.6834 c 6.4327,0.68316 9.4454,-1.1007 11.7605,-4.64881 -4.9661,-1.52962 -7.8683,2.15904 -11.7605,4.64881 m -20.7533,-53.8272 c 2.8329,2.94245 9.8103,5.00641 13.7976,4.08554 -4.9609,-3.71967 -9.9508,-5.19658 -13.7976,-4.08554 m 25.8517,31.69005 c -3.4345,-0.80718 -6.2436,0.0258 -9.0382,0.17157 -1.1535,0.061 -0.5581,0.93638 -0.1292,1.45004 1.5368,1.84381 1.1141,3.3569 -0.6884,4.81521 3.3683,-1.73323 6.5092,-3.71967 9.8558,-6.43682 m -67.998,-2.42362 c -0.092,0 -0.1819,0 -0.2749,0 0,2.11873 -0.01,4.2385 0.01,6.35517 0,0.7462 0.2491,1.38389 1.1059,1.45727 0.8971,0.0765 1.9709,0.24392 2.5456,-0.52606 0.37,-0.49506 -0.1933,-1.27538 -0.5209,-1.86036 -0.1799,-0.32039 -0.5085,-0.5581 -0.7411,-0.85679 -1.3394,-1.70429 -1.9399,-6.55981 -0.6614,-7.68945 1.1585,-1.0294 1.0686,-2.06086 0.8433,-3.24632 -0.124,-0.66662 0.1117,-1.71152 -1.0552,-1.66398 -1.0005,0.0393 -1.1803,0.98392 -1.2092,1.67742 -0.1003,2.11356 -0.037,4.23333 -0.037,6.3531 m 79.1662,-12.33826 c 1.9151,1.0852 1.5245,2.35231 1.4366,3.53776 -0.053,0.70694 -0.2729,1.38596 0.9054,1.24127 3.3279,-0.40204 6.659,-0.74931 10.4696,-1.16995 -3.8923,-2.80707 -7.5541,-4.52169 -12.8116,-3.60908 m 3.143,-8.00365 c 5.6069,4.65398 11.7295,1.14102 17.6185,1.34979 -5.7144,-2.6324 -11.6437,-2.32027 -17.6185,-1.34979 m -4.3812,-5.71955 c -5.6854,-2.23862 -10.8903,-5.58002 -17.6692,-3.98012 5.5801,3.30523 11.0867,5.40329 17.6692,3.98012 m -3.1513,19.34352 c -3.2205,-2.651 -6.3686,-3.68866 -9.5808,-4.54029 -0.6718,-0.17983 -1.7508,-0.39687 -2.0526,0.39688 -0.553,1.45521 -0.7917,3.02927 -1.1059,4.56613 -0.01,0.032 0.6532,0.30489 0.9891,0.28628 3.6938,-0.20154 7.3794,-0.43925 11.7502,-0.709 m 52.3482,-3.98528 c 0.066,-0.30696 0.1292,-0.61599 0.1902,-0.92605 -2.0299,1.16996 -3.0799,-0.62115 -4.6571,-0.96531 -3.2701,-0.7121 -6.4534,-1.82004 -9.71,-2.59829 -1.9317,-0.45992 -3.8179,-1.60094 -5.919,-0.80409 -0.5209,0.19844 -1.3281,0.30386 -1.3415,0.94672 -0.01,0.38137 0.5663,0.9002 0.9952,1.13274 1.9999,1.08211 3.8417,2.37092 5.5429,3.8685 0.5426,0.48162 1.1803,0.6904 1.8872,0.62115 4.3387,-0.41754 8.6754,-0.84853 13.0121,-1.27537 m -85.0005,5.36298 c -7.5913,-5.52628 -7.5913,-5.52628 -17.2082,-6.85437 0,1.65882 -0.074,3.3042 0.026,4.9444 0.061,1.03973 0.556,1.9079 1.8159,1.9079 5.1222,0.005 10.2443,0.002 15.3665,0.002 m -8.353,-30.76298 c -0.4971,-0.62115 -0.9818,-0.90434 -1.5792,-1.08934 -3.329,-1.00562 -3.6939,-1.32602 -3.207,-4.66741 0.341,-2.32854 -1.5235,-2.37092 -2.6087,-2.62724 -1.1007,-0.26251 -0.8867,1.2299 -1.019,2.02882 -0.553,3.46129 -0.082,6.95875 -0.2719,10.4066 -0.2201,3.92121 -0.04,7.87136 -0.5612,11.7843 -0.098,0.7245 -0.6325,1.99781 0.894,2.07946 1.5348,0.0816 1.8738,-0.88057 1.757,-2.22002 -0.185,-2.16421 0.275,-4.24367 1.1535,-6.19911 0.4072,-0.90434 0.7782,-2.08463 2.188,-1.97094 0.4816,0.0393 1.0397,0.0506 0.9529,-0.58704 -0.085,-0.62735 -0.7173,-0.3576 -1.1297,-0.39998 -0.6005,-0.0682 -1.2227,-0.0475 -1.7963,-0.2067 -1.4531,-0.39895 -3.0168,-2.84944 -2.7543,-4.23024 0.3751,-1.98437 1.9523,-1.80454 3.3807,-1.85518 1.482,-0.0496 2.9796,0.19637 4.6012,-0.24598 m -6.6249,50.22122 c 1.9865,-1.88929 2.3895,-5.40328 6.2787,-4.98471 0.7617,0.0816 1.6485,-0.30695 2.3709,-0.68522 2.4598,-1.29398 4.8834,-2.65928 7.2885,-4.05144 0.3917,-0.22427 0.9394,-0.42581 1.0428,-1.03456 -5.7392,-0.35657 -11.4112,-0.5209 -17.0946,-0.0734 -1.4872,0.11576 -1.1937,1.16375 -1.0955,1.99161 0.3596,2.97966 0.8092,5.95106 1.2092,8.8377 m 76.1783,-13.224 c -1.1482,-0.8971 -1.9203,-1.24643 -3.0107,-0.80408 -0.7462,0.30386 -1.667,0.43925 -2.4556,0.31419 -7.5851,-1.21956 -15.0017,0.94258 -22.5186,1.08727 -1.3621,0.0269 -2.5135,0.6935 -1.328,2.44223 0.31,0.46096 0.7069,1.02423 0.4154,1.69602 -0.8547,1.99781 0.5985,1.60611 1.5534,1.36013 2.188,-0.56328 3.7518,-2.16421 5.4312,-3.55844 2.6862,-2.22519 3.4034,-2.28927 5.763,0.32556 1.789,1.98437 3.6194,2.4474 6.3055,2.1301 3.9419,-0.46922 6.3097,-3.35793 9.8444,-4.99298 m 3.9026,8.4398 c -4.6612,-0.71727 -7.9633,1.32085 -11.3554,3.33106 -1.4924,0.88367 -2.1404,1.49758 -1.3384,3.30729 1.0315,2.32028 -0.016,3.43752 -2.5011,3.00034 -2.4712,-0.43098 -4.8494,-0.34107 -6.8999,1.34462 -1.5265,1.2516 -3.2256,2.20865 -4.9402,3.1719 -0.9282,0.52193 -2.3358,1.16685 -2.034,2.44533 0.4444,1.88102 -0.8206,2.25619 -1.9214,2.38125 -2.0556,0.23564 -3.6886,1.31981 -5.4477,2.16627 -0.7482,0.36277 -1.3518,0.57671 -0.4341,1.67018 0.6305,0.75345 0.1933,1.99161 -0.7834,2.79053 -1.4604,1.19373 -2.8277,2.49804 -4.2333,3.75481 14.55,-8.79429 28.4933,-18.39371 41.8889,-29.36358 m -68.0764,13.96194 c -1.5348,-0.17467 -2.5642,-0.43098 -3.2257,0.51366 -1.3498,1.9234 -2.5983,0.6749 -3.5905,-0.2067 -1.1513,-1.02113 -2.4133,-2.20142 -0.9653,-4.0504 1.264,-1.61954 3.0293,-2.66961 4.4338,-4.15685 -2.344,0.98702 -4.6033,1.91306 -7.2068,1.18855 -1.1596,-0.32039 -1.2092,0.66146 -1.1193,1.42317 0.4072,3.45302 0.8599,6.89984 1.3044,10.35079 0.6717,5.18315 1.5347,10.33425 2.066,15.54117 0.2697,2.60346 0.019,5.29994 1.1513,7.81348 0.3783,0.84129 0.2801,1.83554 1.7095,1.36529 1.5027,-0.49506 0.8092,-1.37563 0.4092,-2.06706 -0.8805,-1.52342 -0.3699,-2.25929 1.2124,-2.54248 1.7704,-0.31729 3.1936,-1.38596 4.6777,-2.27273 2.6304,-1.56579 5.2204,-3.21737 7.7494,-5.78673 -2.9652,0.61909 -5.6244,0.46923 -7.7225,2.22002 -2.1518,1.79731 -2.22,1.82315 -4.2788,-0.49196 -1.5028,-1.68568 -1.4128,-2.70887 0.3835,-4.28397 2.3657,-2.07119 4.7387,-4.14548 7.1416,-6.24665 -2.5559,-1.69602 -4.2788,-0.54467 -5.9614,1.23093 -1.4448,1.52859 -2.836,1.40767 -4.2519,-0.17466 -1.3467,-1.50585 -1.3674,-3.43442 0.2305,-4.47932 1.9926,-1.29914 3.4365,-3.17293 5.8529,-4.88755 m -19.3732,-70.21482 c 0.071,-1.00769 -0.095,-2.34198 -0.6005,-3.64836 -0.648,-1.68051 0.04,-3.19877 0.9529,-4.50308 0.8361,-1.19579 2.1425,-1.4025 3.4075,-0.52193 4.6571,3.25768 9.9322,4.97747 15.2766,6.77064 9.6077,3.23392 19.4128,5.90042 28.8055,9.78959 4.1228,1.70945 8.3819,3.07991 12.578,4.60437 10.8325,3.93154 21.855,7.29154 32.9066,10.50891 9.742,2.83394 19.4262,5.87665 29.3243,8.16798 2.2407,0.51884 4.2808,1.89653 6.2652,2.98173 1.6826,0.92088 1.7457,3.62769 1.2092,5.63067 -0.5188,1.94407 -1.6143,3.34656 -3.4426,4.81211 -2.9632,2.37918 -6.3521,3.95634 -9.3793,6.14122 -6.7045,4.83692 -13.7614,9.17567 -21.0871,13.08137 -5.3392,2.84944 -10.7766,5.52938 -15.7003,9.17257 -6.1309,4.53513 -12.6339,8.55659 -18.8733,12.94909 -5.8952,4.14548 -12.1605,7.66774 -18.3121,11.39258 -3.3176,2.00608 -6.9453,3.90777 -8.5824,7.96954 -0.339,0.84956 -1.6888,1.65365 -3.1223,1.33325 -2.5951,-0.58187 -4.4421,0.62735 -5.9376,2.651 -0.9973,1.34669 -2.6799,2.10427 -4.0587,2.02675 -1.7011,-0.0971 -3.1057,0.41548 -4.5795,0.86817 -1.8366,0.56637 -3.5326,0.78341 -5.1253,-0.62219 -0.431,-0.38034 -1.0821,-0.53123 -1.6505,-0.73794 -3.9957,-1.4335 -5.8684,-5.10666 -5.4881,-9.3555 0.4682,-5.21725 -0.2108,-10.44587 -0.587,-15.66829 -0.5819,-8.1101 -2.527,-16.06311 -2.7306,-24.21248 -0.024,-1.09244 -0.3121,-2.20142 -1.5844,-1.98644 -2.7016,0.45682 -5.3878,0.0682 -8.075,0.1664 -4.0938,0.14779 -8.1576,0.524 -12.2059,1.11621 -2.7017,0.39481 -4.6675,-1.86035 -4.7543,-4.55063 -0.217,-6.67556 1.3044,-13.32425 0.2171,-19.99981 -0.1726,-1.06144 2.2066,-4.64881 3.1957,-4.97437 0.3338,-0.11059 0.6273,-0.12403 0.834,0.0982 2.2438,2.39985 5.1728,1.27227 7.7597,1.30948 3.2257,0.0475 6.472,-0.5023 9.7214,-0.34107 1.2433,0.061 1.7622,-0.25425 1.8304,-1.58543 0.4951,-9.54567 1.0563,-19.08928 1.5875,-28.63288 0.032,-0.60565 0.01,-1.21749 0.01,-2.20141"
       id="path9441" />
    <path
       style="fill:#231f20;fill-opacity:1;fill-rule:evenodd;stroke-width:0.26458332"
       inkscape:connector-curvature="0"
       d="m 2121.2613,218.33465 c 1.2248,4.24057 0.275,9.32139 1.1989,14.24202 0.4837,2.59519 0.021,4.98265 -0.9818,7.28638 -0.6584,1.51412 -1.9131,1.18546 -2.7068,0.15606 -1.788,-2.3306 -2.4578,-5.09839 -1.9741,-7.95817 0.8599,-5.08289 0.7545,-10.09964 -0.3493,-15.11845 -0.1612,-0.74104 -0.3142,-1.48932 -0.3669,-2.24379 -0.088,-1.29605 -0.2201,-2.78019 1.386,-3.22255 1.6143,-0.44958 2.4608,0.96325 3.1543,2.02159 0.7875,1.19889 1.0232,2.67787 0.6397,4.83691"
       id="path9443" />
    <path
       style="fill:#231f20;fill-opacity:1;fill-rule:evenodd;stroke-width:0.26458332"
       inkscape:connector-curvature="0"
       d="m 1594.1008,236.09067 c 1.3859,-1.86552 2.5207,-3.35483 3.6111,-4.87619 0.5716,-0.80202 0.6243,-1.40766 -0.6801,-1.35185 -6.6652,0.29352 -13.3325,-0.29146 -20.008,0.21911 -5.3682,0.41237 -10.7766,0.28008 -16.1655,0.38654 -7.0104,0.13745 -14.0187,-0.0879 -21.0354,0.0631 -9.2738,0.2036 -18.5694,0.15399 -27.8474,-0.55811 -2.7998,-0.21394 -5.7795,-0.0527 -8.4522,1.18029 -1.0345,0.47646 -1.8892,0.34933 -2.8132,-0.0579 -0.3824,-0.1695 -0.7152,-0.74931 -1.1762,-0.29456 -0.4578,0.45269 -0.062,1.00873 0.038,1.50276 0.122,0.60874 0.6563,0.86299 1.172,0.95291 2.526,0.43615 3.4531,1.9451 2.9105,4.39456 0.2738,0.0165 0.5023,0.0693 0.5219,0.0289 1.2154,-2.66133 3.1936,-3.51606 6.1381,-3.33106 4.5341,0.28319 9.0961,0.27285 13.6478,-0.0341 1.5244,-0.10025 2.6623,0.55294 2.5952,2.38125 -0.1251,3.43648 -1.3199,6.04615 -5.5966,5.46117 -4.9878,-0.68006 -10.0883,-0.59841 -15.1205,0.092 -2.311,0.31833 -2.1095,-1.33532 -2.281,-3.35173 -1.3715,2.26756 -3.7404,2.26756 -5.115,3.89227 -0.8237,0.97875 -2.0887,0.81235 -3.0912,0.3886 -1.5245,-0.65112 -2.2397,-2.06395 -2.2945,-3.65145 -0.034,-1.03663 0.059,-2.24069 0.5612,-3.10059 1.757,-3.02204 1.5141,-6.28902 1.4263,-9.53017 -0.047,-1.7756 0.6377,-3.16466 1.4883,-4.63331 0.9736,-1.67948 2.0557,-1.56579 3.1574,-0.40721 0.6759,0.71211 1.2847,0.89194 2.1932,0.77515 7.1933,-0.93638 14.4146,-0.17157 21.6059,-0.33073 8.8863,-0.19533 17.7508,0.40204 26.6412,0 11.6066,-0.5209 23.2389,-0.49506 34.8579,-0.6904 2.0164,-0.0341 4.0328,-0.005 6.6683,-0.005 -1.5617,-1.35185 -2.5373,-2.15904 -3.7703,-2.75745 -5.9531,-2.88665 -11.7502,-6.03478 -17.3581,-9.57254 -5.6111,-3.54294 -11.5156,-6.61975 -17.1928,-10.0645 -6.5443,-3.96875 -13.7118,-6.69417 -20.346,-10.39317 -2.8784,-1.603 -6.1599,-3.05614 -8.5111,-5.6596 -0.4734,-0.52297 -1.109,-0.83819 -1.8314,-0.78548 -2.2397,0.15916 -2.5684,-1.16169 -3.0138,-3.05098 -0.5922,-2.52078 0.2284,-4.72529 0.6428,-7.0373 0.2305,-1.27847 1.5638,-1.12964 2.2087,-0.78858 5.6782,3.01584 11.9889,3.75998 18.1105,5.14387 8.1959,1.84382 15.691,5.54282 23.4322,8.59586 7.4672,2.94452 15.0771,5.45807 22.8006,7.62847 4.8917,1.37253 9.5777,3.34657 14.4591,4.78318 10.173,2.99516 20.3016,6.15983 30.239,9.9167 5.3712,2.03502 10.9378,3.55017 16.4124,5.32061 3.5109,1.13481 6.7862,3.05304 10.6629,2.97966 0.7535,-0.0165 1.5317,0.60255 1.8542,1.49965 0.5374,1.48208 1.1854,2.92902 1.6537,4.43177 0.7493,2.41019 -0.4734,4.36046 -2.9157,4.7253 -0.6159,0.093 -1.1244,0.23564 -1.6433,0.63251 -3.3041,2.52905 -7.0083,4.3925 -10.6226,6.42442 -2.6985,1.51308 -5.4663,2.93936 -8.0698,4.58266 -5.8528,3.6928 -12.3238,6.11953 -18.3565,9.42992 -5.0539,2.76986 -9.9539,5.80223 -14.613,9.17257 -2.0826,1.50585 -4.3739,2.63033 -6.4058,4.2571 -5.7754,4.61988 -11.7502,8.99067 -17.7271,13.35319 -6.596,4.81625 -13.6364,8.89352 -21.0613,12.32483 -4.2312,1.95544 -7.984,4.74907 -11.7532,7.45588 -1.447,1.03973 -2.4991,1.26504 -3.7249,-0.10026 -0.4692,-0.524 -1.1296,-0.67799 -1.8045,-0.86506 -2.8329,-0.79685 -4.2199,-6.1681 -1.6723,-8.26306 10.7973,-8.89248 21.3062,-18.13533 32.0456,-27.10429 5.208,-4.34703 9.6615,-9.39788 14.2493,-14.33505 1.7198,-1.84692 1.5875,-2.32544 -1.0108,-2.651 -2.3813,-0.29662 -4.8256,-0.061 -7.242,-0.0506 -2.8783,0.0103 -3.3858,-0.56637 -2.9259,-3.33106 0.6139,-3.68247 2.5456,-5.18832 6.1991,-4.81521 2.4102,0.24598 4.8049,0.47645 7.244,0.14572 2.8236,-0.38343 3.2071,-0.0186 3.8003,3.3073"
       id="path9445" />
    <path
       style="fill:#231f20;fill-opacity:1;fill-rule:evenodd;stroke-width:0.26458332"
       inkscape:connector-curvature="0"
       d="m 1543.8733,240.72605 c -2.9393,0.0238 -5.8818,-0.15917 -8.8077,0.41547 -1.5658,0.30696 -2.7699,-1.6092 -2.2676,-3.45301 0.7338,-2.70682 2.988,-4.2013 5.7847,-4.21783 4.8286,-0.0341 9.6645,0.61701 14.4921,-0.29043 1.2082,-0.23047 2.0878,0.70591 2.3234,1.97921 0.4827,2.59002 -1.8107,5.47357 -4.4803,5.55315 -2.3472,0.0692 -4.6964,0.0155 -7.0446,0.0134"
       id="path9447" />
    <path
       style="fill:#231f20;fill-opacity:1;fill-rule:evenodd;stroke-width:0.26458332"
       inkscape:connector-curvature="0"
       d="m 1565.163,241.93218 c -1.48,-0.55294 -2.9425,0.13539 -4.4421,0.23357 -1.1317,0.0713 -2.5797,0.80615 -3.2753,-0.63252 -0.6604,-1.36322 -0.2511,-2.93935 0.5075,-4.10621 1.2857,-1.97197 2.7564,-3.69693 5.7113,-3.08508 1.8872,0.39378 3.9263,0.185 5.8684,-0.3762 1.7652,-0.51573 2.7677,0.32866 3.0458,2.06085 0.4092,2.56729 -1.6227,5.22036 -4.2044,5.54075 -1.0501,0.12919 -2.1022,0.23771 -3.2112,0.36484"
       id="path9449" />
  </g>
</svg>
